<svg width="20" height="21" viewBox="0 0 20 21" fill="none" xmlns="http://www.w3.org/2000/svg">
<g clip-path="url(#clip0_1350_69447)">
<path d="M20 10.6379C20 5.11509 15.5229 0.637939 10 0.637939C4.47715 0.637939 0 5.11509 0 10.6379C0 15.6292 3.65684 19.7663 8.4375 20.5165V13.5286H5.89844V10.6379H8.4375V8.43482C8.4375 5.92857 9.93047 4.54419 12.2146 4.54419C13.3084 4.54419 14.4531 4.7395 14.4531 4.7395V7.20044H13.1922C11.95 7.20044 11.5625 7.97134 11.5625 8.76294V10.6379H14.3359L13.8926 13.5286H11.5625V20.5165C16.3432 19.7663 20 15.6292 20 10.6379Z" fill="#E0E0E0"/>
</g>
<defs>
<clipPath id="clip0_1350_69447">
<rect width="20" height="20" fill="white" transform="translate(0 0.637939)"/>
</clipPath>
</defs>
</svg>
