<svg width="20" height="21" viewBox="0 0 20 21" fill="none" xmlns="http://www.w3.org/2000/svg">
<g clip-path="url(#clip0_1350_69448)">
<path d="M10 2.43872C12.6719 2.43872 12.9883 2.45044 14.0391 2.49731C15.0156 2.54028 15.543 2.70435 15.8945 2.84106C16.3594 3.02075 16.6953 3.2395 17.043 3.58716C17.3945 3.93872 17.6094 4.27075 17.7891 4.7356C17.9258 5.08716 18.0898 5.61841 18.1328 6.59106C18.1797 7.64575 18.1914 7.96216 18.1914 10.6301C18.1914 13.302 18.1797 13.6184 18.1328 14.6692C18.0898 15.6458 17.9258 16.1731 17.7891 16.5247C17.6094 16.9895 17.3906 17.3254 17.043 17.6731C16.6914 18.0247 16.3594 18.2395 15.8945 18.4192C15.543 18.5559 15.0117 18.72 14.0391 18.7629C12.9844 18.8098 12.668 18.8215 10 18.8215C7.32813 18.8215 7.01172 18.8098 5.96094 18.7629C4.98438 18.72 4.45703 18.5559 4.10547 18.4192C3.64063 18.2395 3.30469 18.0208 2.95703 17.6731C2.60547 17.3215 2.39063 16.9895 2.21094 16.5247C2.07422 16.1731 1.91016 15.6418 1.86719 14.6692C1.82031 13.6145 1.80859 13.2981 1.80859 10.6301C1.80859 7.95825 1.82031 7.64185 1.86719 6.59106C1.91016 5.6145 2.07422 5.08716 2.21094 4.7356C2.39063 4.27075 2.60938 3.93481 2.95703 3.58716C3.30859 3.2356 3.64063 3.02075 4.10547 2.84106C4.45703 2.70435 4.98828 2.54028 5.96094 2.49731C7.01172 2.45044 7.32813 2.43872 10 2.43872ZM10 0.637939C7.28516 0.637939 6.94531 0.649658 5.87891 0.696533C4.81641 0.743408 4.08594 0.915283 3.45313 1.16138C2.79297 1.41919 2.23438 1.75903 1.67969 2.31763C1.12109 2.87231 0.78125 3.43091 0.523438 4.08716C0.277344 4.72388 0.105469 5.45044 0.0585938 6.51294C0.0117188 7.58325 0 7.9231 0 10.6379C0 13.3528 0.0117188 13.6926 0.0585938 14.759C0.105469 15.8215 0.277344 16.552 0.523438 17.1848C0.78125 17.845 1.12109 18.4036 1.67969 18.9583C2.23438 19.5129 2.79297 19.8567 3.44922 20.1106C4.08594 20.3567 4.8125 20.5286 5.875 20.5754C6.94141 20.6223 7.28125 20.634 9.99609 20.634C12.7109 20.634 13.0508 20.6223 14.1172 20.5754C15.1797 20.5286 15.9102 20.3567 16.543 20.1106C17.1992 19.8567 17.7578 19.5129 18.3125 18.9583C18.8672 18.4036 19.2109 17.845 19.4648 17.1887C19.7109 16.552 19.8828 15.8254 19.9297 14.7629C19.9766 13.6965 19.9883 13.3567 19.9883 10.6418C19.9883 7.927 19.9766 7.58716 19.9297 6.52075C19.8828 5.45825 19.7109 4.72778 19.4648 4.09497C19.2188 3.43091 18.8789 2.87231 18.3203 2.31763C17.7656 1.76294 17.207 1.41919 16.5508 1.16528C15.9141 0.919189 15.1875 0.747314 14.125 0.700439C13.0547 0.649658 12.7148 0.637939 10 0.637939Z" fill="#E0E0E0"/>
<path d="M10 5.50122C7.16406 5.50122 4.86328 7.802 4.86328 10.6379C4.86328 13.4739 7.16406 15.7747 10 15.7747C12.8359 15.7747 15.1367 13.4739 15.1367 10.6379C15.1367 7.802 12.8359 5.50122 10 5.50122ZM10 13.97C8.16016 13.97 6.66797 12.4778 6.66797 10.6379C6.66797 8.7981 8.16016 7.30591 10 7.30591C11.8398 7.30591 13.332 8.7981 13.332 10.6379C13.332 12.4778 11.8398 13.97 10 13.97Z" fill="#E0E0E0"/>
<path d="M16.5391 5.2981C16.5391 5.96216 16 6.49732 15.3398 6.49732C14.6758 6.49732 14.1406 5.95825 14.1406 5.2981C14.1406 4.63403 14.6797 4.09888 15.3398 4.09888C16 4.09888 16.5391 4.63794 16.5391 5.2981Z" fill="#E0E0E0"/>
</g>
<defs>
<clipPath id="clip0_1350_69448">
<rect width="20" height="20" fill="white" transform="translate(0 0.637939)"/>
</clipPath>
</defs>
</svg>
