<svg width="184" height="40" viewBox="0 0 184 40" fill="none" xmlns="http://www.w3.org/2000/svg">
<circle cx="19.6378" cy="20" r="19.6378" fill="#FFD008"/>
<path d="M12.7645 28.5415C12.4209 28.7346 12.042 28.8568 11.6503 28.9008C11.8071 29.0447 11.9978 29.1466 12.2045 29.197L11.3923 29.6978C11.4982 29.6186 11.6201 29.5634 11.7494 29.536C11.8788 29.5086 12.0126 29.5096 12.1415 29.5391C11.7935 29.7386 11.4929 30.0112 11.2604 30.338C11.5086 30.3204 11.7528 30.2657 11.9848 30.1755L11.8204 31.0757C11.9549 30.842 12.154 30.6522 12.3937 30.5291C12.3456 31.0207 12.352 31.5162 12.4128 32.0064L12.7148 31.1158C12.7883 31.3985 12.8928 31.6721 13.0263 31.9319C13.0283 31.8307 13.0524 31.7313 13.097 31.6405C13.1416 31.5496 13.2055 31.4697 13.2843 31.4063C13.3498 31.7216 13.3951 32.0408 13.42 32.3619C13.5647 32.0676 13.7699 31.8071 14.022 31.5974C14.058 31.9668 13.9919 32.339 13.8309 32.6734C13.9273 32.4311 14.0895 32.2206 14.2991 32.0656C14.3608 32.3155 14.377 32.5745 14.3469 32.8301L14.7215 32.4058C14.8655 32.9561 14.8909 33.5306 14.796 34.0915L15.1018 32.7135C15.3165 32.9718 15.4723 33.2738 15.5586 33.5984C15.6672 33.34 15.746 33.07 15.7936 32.7938L16.2275 33.3614C16.362 33.1286 16.4356 32.8657 16.4415 32.5969L16.7263 33.113C16.8257 32.8817 16.753 32.6199 16.7091 32.3714C16.6651 32.123 16.6728 31.8268 16.8715 31.6739C17.0552 32.0984 17.1256 32.5633 17.076 33.0231L17.1372 32.0198L17.808 33.004C17.8228 32.6574 17.9114 32.3179 18.0679 32.0083C18.2695 32.5046 18.4325 33.0158 18.5552 33.5372L18.968 32.8664L19.0368 33.7494C19.2159 33.1737 19.4575 32.6193 19.7573 32.0962C19.8004 32.5216 19.7602 32.9514 19.6389 33.3614L20.3632 32.5033C20.4828 32.6173 20.5789 32.7536 20.646 32.9046C20.6883 32.7526 20.6935 32.5927 20.6613 32.4383C20.7416 32.4508 20.8185 32.4797 20.8872 32.5231C20.9559 32.5665 21.0149 32.6235 21.0607 32.6906L21.1391 32.2376L21.2461 33.973L21.9685 32.8664L22.0048 33.6137C22.096 33.4061 22.1603 33.1877 22.196 32.9639L22.4712 33.6442C22.4827 33.4335 22.5226 33.2252 22.5897 33.025L23.2719 33.7322L23.5682 33.283C23.618 33.584 23.648 33.8879 23.658 34.1927C23.8159 33.7709 24.0397 33.3768 24.3211 33.025C24.4378 33.4196 24.4742 33.8336 24.4282 34.2424L25.0015 32.9467C25.0859 33.2347 25.2291 33.5022 25.422 33.7322C25.4421 33.4807 25.4055 33.228 25.3149 32.9926C25.5855 33.1766 25.8893 33.3065 26.2093 33.3748C26.1672 33.0917 26.076 32.8181 25.9399 32.5664C26.1096 32.7665 26.3408 32.9049 26.5973 32.9601L26.259 32.2147C26.2385 32.1924 26.2245 32.1649 26.2185 32.1352C26.2125 32.1055 26.2148 32.0747 26.225 32.0461C26.2352 32.0176 26.2531 31.9924 26.2766 31.9733C26.3001 31.9542 26.3284 31.9418 26.3584 31.9376L26.8859 31.7102C26.6657 31.7217 26.4482 31.6584 26.2686 31.5305L27.5108 30.8827L26.4807 30.8674L26.9642 30.2634L26.5151 30.6132C26.7765 30.2431 26.9922 29.8426 27.1573 29.4206L26.6776 29.3117L27.442 29.2391L26.3527 28.4058C26.531 28.3514 26.694 28.2558 26.8286 28.1268C26.7674 28.1178 26.7051 28.122 26.6458 28.1392C26.5864 28.1563 26.5314 28.186 26.4845 28.2262L26.7425 27.4789C26.5254 27.5355 26.2955 27.5168 26.0903 27.4259C25.8852 27.335 25.7169 27.1771 25.6131 26.9782L25.8443 26.703C24.7025 26.5726 23.5531 26.5222 22.4043 26.552L16.518 26.5692L12.7645 28.5415Z" fill="#E5E4E4"/>
<path d="M14.838 25.6576L11.9599 11.3241L10.9756 11.5152C10.6526 11.4388 10.3354 11.6375 10.0621 11.8248L9.47347 12.23C9.30539 12.3407 9.14453 12.462 8.99186 12.5931C8.80842 12.7625 8.63905 12.9466 8.48541 13.1435C8.00651 13.6882 7.57554 14.2733 7.19731 14.8922C7.70694 14.3762 8.20001 13.8487 8.67653 13.3098C8.89352 13.0373 9.1514 12.8001 9.44098 12.6065C9.58699 12.5103 9.75389 12.4503 9.92776 12.4317C10.1016 12.4131 10.2774 12.4363 10.4405 12.4995C9.85187 12.8817 9.24222 13.2811 8.88675 13.885C9.25281 13.5611 9.68723 13.324 10.1577 13.1913C9.15721 13.702 8.30493 14.4615 7.68273 15.3967L8.25607 15.1254C7.88121 15.2878 7.55655 15.5474 7.31564 15.8773C7.07473 16.2073 6.92633 16.5956 6.88579 17.0021L7.42855 16.702L6.6641 17.971C6.46152 18.3036 6.26085 18.7355 6.47298 19.0527C6.93238 18.7024 7.24887 18.1971 7.36357 17.6309C7.50309 18.3456 6.74437 19.0164 6.89917 19.7331C7.0794 19.5598 7.20439 19.337 7.25846 19.0929L7.06735 19.4503C6.8315 19.7925 6.67747 20.1844 6.61716 20.5956C6.55685 21.0068 6.59187 21.4264 6.71952 21.822C6.96268 21.4151 7.0822 20.9463 7.06353 20.4727C7.0463 20.3401 7.0463 20.2059 7.06353 20.0733C7.07444 20.0076 7.10295 19.9461 7.14602 19.8952C7.18909 19.8444 7.24512 19.8062 7.30815 19.7847C7.09821 20.71 6.97726 21.6533 6.94695 22.6017C7.1629 22.4316 7.22024 22.1335 7.26037 21.8602C7.12237 22.1 7.04705 22.3707 7.04137 22.6472C7.03569 22.9238 7.09984 23.1974 7.22788 23.4426L7.34446 22.8941C7.38332 23.1173 7.38332 23.3456 7.34446 23.5688C7.27375 23.7732 7.18393 24.0026 7.24317 24.1765C7.30242 24.3504 7.58718 23.5496 7.58718 23.5496C7.54528 24.0479 7.60045 24.5497 7.74962 25.027C7.84536 24.8471 7.88654 24.6432 7.86811 24.4402C7.85149 25.1534 8.0413 25.8563 8.4147 26.4641C8.43795 26.1529 8.40096 25.8402 8.30576 25.543C8.5828 26.1019 8.76432 26.7033 8.84279 27.3222C8.93013 27.1302 8.97532 26.9216 8.97532 26.7107C8.97532 26.4997 8.93013 26.2912 8.84279 26.0991C8.77399 25.9443 8.67461 25.7742 8.73768 25.6175L9.05111 26.8043C9.102 27.0442 9.18627 27.2758 9.30147 27.4923C9.36027 27.6001 9.4407 27.6947 9.53771 27.77C9.63472 27.8453 9.74622 27.8997 9.86525 27.93C9.86661 27.2789 9.72435 26.6354 9.44862 26.0456C9.33013 26.5043 9.76778 26.896 9.95125 27.3318C10.1213 27.7293 10.0908 28.2186 10.3755 28.5415C10.3705 28.2514 10.3443 27.9621 10.2972 27.6758C10.5161 28.0475 10.7157 28.4303 10.8954 28.8225C10.9697 28.692 11.0336 28.5559 11.0865 28.4154L11.1228 28.9887C11.1228 28.9887 11.4095 28.1612 11.4228 28.2014C11.4362 28.2415 11.3139 29.1856 11.3808 29.09C11.4698 28.9357 11.5508 28.7768 11.6235 28.6142C11.6602 28.7027 11.7091 28.7857 11.7687 28.8607C11.818 28.7833 11.8584 28.7006 11.8891 28.6142C11.9581 28.7784 11.9747 28.9599 11.9369 29.134L12.2599 28.7288L12.3727 29.1665L12.495 28.7269C12.5408 28.9027 12.5963 29.0766 12.6593 29.2467C12.6899 29.1091 12.7224 28.9715 12.7549 28.8359L13.1218 29.5219C13.1048 29.2365 13.1505 28.9508 13.2556 28.6849C13.2844 28.802 13.3393 28.9111 13.4161 29.004C13.5006 28.7805 13.6235 28.5736 13.7793 28.3925C13.8671 28.4784 13.9441 28.5746 14.0086 28.6791L14.1997 28.3351L14.3488 28.6409L14.5819 28.0676L14.6431 28.2587L14.838 25.6576Z" fill="#16191E"/>
<path d="M31.7096 17.2047C32.1114 17.2822 32.468 17.5114 32.7053 17.8449C32.5048 17.6547 32.2492 17.5329 31.9752 17.4971C32.2863 17.7066 32.5289 18.003 32.6728 18.3494C32.4249 18.2755 32.2025 18.1338 32.0306 17.9405C32.0708 18.5004 32.9862 18.6667 33.0263 19.2266C33.0263 19.2954 33.0091 19.3776 32.9461 19.4006C32.9189 19.4055 32.891 19.4044 32.8643 19.3975C32.8375 19.3905 32.8126 19.3779 32.7913 19.3604C32.536 19.1981 32.3147 18.9878 32.1396 18.7412C32.4218 19.1296 32.6245 19.57 32.7358 20.037C32.5664 19.9111 32.409 19.7697 32.2657 19.6146C32.4488 19.8634 32.5931 20.1386 32.6938 20.4307C32.7437 20.5768 32.7603 20.7323 32.7424 20.8857C32.7246 21.0391 32.6727 21.1866 32.5906 21.3174C32.5986 21.158 32.5681 20.9991 32.5015 20.854C32.435 20.7089 32.3344 20.5821 32.2084 20.4842C32.4969 20.7479 32.4893 21.197 32.4606 21.5869L32.3211 23.498L32.0918 21.9003C32.0364 21.5181 31.9733 21.1149 31.7325 20.811C31.9374 22.0207 32.0015 23.2501 31.9236 24.4746C31.7994 24.0561 31.6732 23.6376 31.5414 23.219C31.6099 24.0051 31.4308 24.793 31.0292 25.4722L31.012 24.8989C30.8538 25.4596 30.6446 26.0046 30.387 26.5272L30.5113 25.7379L29.9207 27.3796C29.788 27.1971 29.7056 26.9829 29.6818 26.7584C29.5462 27.0623 29.4356 27.3768 29.3512 27.6987C29.2669 27.6486 29.2004 27.5734 29.161 27.4836C29.1216 27.3938 29.1113 27.294 29.1314 27.198C29.1433 27.2985 29.1309 27.4004 29.0953 27.4952C29.0597 27.5899 29.002 27.6748 28.9269 27.7427C28.79 27.6455 28.6913 27.5035 28.6479 27.3413L28.5887 27.8153L28.0344 27.1521C27.922 27.3213 27.8689 27.5229 27.8835 27.7255L27.5815 27.3432C27.5945 27.4588 27.5843 27.5758 27.5515 27.6874C27.5187 27.799 27.4639 27.9029 27.3904 27.993L27.0387 27.5611C27.0251 27.6383 26.9908 27.7103 26.9394 27.7694C26.9062 27.7559 26.8762 27.7357 26.8512 27.7101C26.8262 27.6844 26.8067 27.6539 26.7941 27.6204L25.9513 26.0915L26.5705 12.8626L28.1109 12.1497C28.1797 12.0994 28.2627 12.0723 28.3479 12.0723C28.4331 12.0723 28.5161 12.0994 28.5848 12.1497C28.6382 12.2055 28.6978 12.2549 28.7626 12.2969C28.9002 12.358 29.0779 12.2682 29.2041 12.3485C29.3302 12.4287 29.334 12.6141 29.4544 12.6906C29.5748 12.767 29.7009 12.702 29.8271 12.6906C30.194 12.6638 30.4616 13.0231 30.6489 13.3403C30.6749 13.399 30.721 13.4464 30.7788 13.4741C30.9241 13.5238 31.0292 13.3327 31.1611 13.2735C31.377 13.1836 31.5796 13.4244 31.6771 13.6366C31.7745 13.8487 31.9121 14.1086 32.1453 14.0933C31.9491 14.0806 31.7575 14.0285 31.5818 13.9402C31.4062 13.8519 31.2501 13.7291 31.1228 13.5792C31.0559 13.669 30.958 13.7306 30.8481 13.7521C30.7383 13.7737 30.6243 13.7536 30.5285 13.6958C30.3413 13.5739 30.1854 13.4095 30.0736 13.2161C30.029 13.135 29.9573 13.0721 29.871 13.0384C29.7067 13.0002 29.5805 13.1683 29.4582 13.2849C29.3359 13.4015 29.076 13.4283 29.055 13.262C29.3607 13.4179 29.6463 13.6104 29.9054 13.8353C29.9428 13.7929 29.9891 13.7594 30.0411 13.7371C30.093 13.7147 30.1492 13.7042 30.2057 13.7062C30.2622 13.7082 30.3175 13.7227 30.3677 13.7487C30.4179 13.7746 30.4617 13.8114 30.496 13.8564C30.5686 13.9729 30.5915 14.143 30.7196 14.1812C30.8094 14.208 30.9011 14.1526 30.9929 14.1392C31.4114 14.0723 31.5853 14.7794 32.0058 14.81C31.5437 14.5969 31.0429 14.4805 30.5342 14.4679C30.4873 14.4744 30.4396 14.4702 30.3946 14.4557C30.3496 14.4411 30.3085 14.4166 30.2743 14.3838C30.2342 14.3303 30.2361 14.2539 30.2036 14.1927C30.1711 14.1316 30.0679 14.1067 30.0469 14.1717C30.5572 14.5621 31.0255 15.0047 31.4439 15.4923C31.077 15.2171 30.6794 14.9304 30.217 14.9189C30.6272 15.3126 31.0286 15.7153 31.421 16.1268C31.3112 16.1462 31.1987 16.143 31.0902 16.1174C30.9818 16.0917 30.8797 16.0442 30.7903 15.9777C31.0675 16.3402 31.3743 16.679 31.7076 16.9906C31.4036 16.9359 31.1153 16.8152 30.8629 16.6371" fill="#16191E"/>
<path d="M15.8126 27.4656C15.7912 28.0687 15.9524 28.6642 16.2751 29.1741C16.2501 28.8265 16.1912 28.4821 16.0992 28.146C16.1303 28.406 16.2156 28.6567 16.3496 28.8817L16.4127 28.3906C16.5193 28.5358 16.6133 28.6899 16.6936 28.8512L16.8446 28.3638L17.0739 28.9563L17.1255 28.3581C17.2427 28.6435 17.4269 28.8965 17.6625 29.0958C17.6451 28.9661 17.6016 28.8412 17.5345 28.7289L18.0792 29.2563L18.0142 28.5951C18.0839 28.7781 18.2006 28.9396 18.3525 29.0633L18.385 28.639L18.6621 29.5201C18.7576 29.2181 18.8672 28.9206 18.9908 28.6276L19.0462 29.3328L19.1895 28.7346L19.2431 29.2105L19.6024 28.6715C19.6784 28.8781 19.7328 29.092 19.7648 29.3098C19.8186 29.1698 19.8427 29.0201 19.8355 28.8703C19.9118 29.0556 20.0148 29.2288 20.1413 29.3844C20.1829 29.1962 20.2021 29.0037 20.1986 28.811C20.2719 29.0177 20.3687 29.2152 20.4872 29.3997C20.5004 29.181 20.5272 28.9633 20.5675 28.748L21.1599 29.6003L21.223 29.0996C21.2576 29.1651 21.3146 29.2159 21.3835 29.2429L21.3606 28.8301L21.8594 29.1569C21.8853 29.1019 21.8987 29.0419 21.8987 28.9811C21.8987 28.9203 21.8853 28.8603 21.8594 28.8053C22.0159 28.9853 22.2276 29.1083 22.4614 29.155C22.4783 29.0453 22.4699 28.9331 22.4367 28.8271C22.4036 28.7211 22.3467 28.6241 22.2703 28.5435C22.4872 28.7048 22.7303 28.8276 22.9889 28.9066C22.9796 28.831 22.9549 28.7582 22.9165 28.6924C22.878 28.6267 22.8266 28.5695 22.7653 28.5244C22.9479 28.611 23.1519 28.6422 23.352 28.6142C23.2306 28.4751 23.0969 28.3471 22.9526 28.2319C23.1702 28.3188 23.4052 28.3535 23.6387 28.3332L23.4361 28.1058L23.9024 28.188L23.9445 27.8899C23.9955 28.0063 24.0597 28.1166 24.1356 28.2186C24.2228 28.0858 24.2958 27.9442 24.3534 27.7962L24.5044 28.0447C24.6374 27.7718 24.703 27.4709 24.6955 27.1675L24.8083 25.4379C24.8145 25.4087 24.8147 25.3785 24.8088 25.3493C24.8028 25.32 24.791 25.2923 24.7739 25.2678C24.7378 25.2358 24.692 25.217 24.6439 25.2143C23.8735 25.0662 23.0862 25.0263 22.3047 25.0958C21.7084 25.1588 21.1255 25.3098 20.5331 25.3977C18.922 25.6424 17.2402 25.4398 15.6826 25.9195C15.6474 25.9251 15.6158 25.9443 15.5947 25.973C15.5831 26.0045 15.5831 26.039 15.5947 26.0705L15.6864 26.4661L15.8126 27.4656Z" fill="#D1D0D1"/>
<path d="M11.6215 11.0011L11.4037 10.3666C11.4243 10.5392 11.4962 10.7016 11.6101 10.8329L11.7591 10.1851C11.7585 10.2679 11.7751 10.35 11.808 10.426C11.841 10.502 11.8894 10.5703 11.9503 10.6265L12.0038 9.90985C12.0469 10.092 12.1262 10.2636 12.2369 10.4144L12.3134 9.55056C12.3909 9.76137 12.5228 9.94796 12.6956 10.0914C12.7583 9.69312 12.7322 9.2859 12.6192 8.89887C12.6884 9.10157 12.8228 9.27564 13.0014 9.39386C12.9113 9.21371 12.8811 9.00945 12.9154 8.81095C13.0584 8.99367 13.2548 9.12727 13.4773 9.19318C13.4565 8.95246 13.3779 8.72033 13.2479 8.51664C13.3822 8.69073 13.5682 8.81784 13.7792 8.87976L13.7104 8.13441C13.8985 8.34782 14.1094 8.54007 14.3392 8.70775L14.2876 7.99299C14.377 8.19632 14.4954 8.38559 14.6392 8.55486L14.6889 8.24335L14.88 8.39051L14.903 7.89361L15.1954 8.05606C15.1741 7.7489 15.0719 7.45284 14.8991 7.19795C15.103 7.36552 15.3354 7.495 15.5852 7.58018L15.3941 6.69915L15.7458 7.14253L16.0802 6.6055L16.2274 7.13106C16.2266 6.96455 16.2879 6.80373 16.3994 6.68004C16.3945 6.77321 16.418 6.86567 16.4668 6.94519C16.5156 7.0247 16.5874 7.08752 16.6727 7.12533C16.6631 6.8282 16.6901 6.53103 16.7529 6.24048L17.0568 6.90173L17.3492 6.32838L17.4467 6.81382L17.7582 6.52715L17.8002 6.86733L18.3411 5.7627L18.3659 6.55008L18.8648 6.05701L18.8227 6.85777C18.8899 6.61299 19.0121 6.3868 19.1801 6.19652C19.1789 6.34803 19.2062 6.49841 19.2604 6.6399L19.4782 6.37616L19.6693 6.66857L19.9961 5.80473L19.9617 6.7603C20.1976 6.63023 20.408 6.45866 20.5829 6.25385V6.7756C20.6921 6.62677 20.8207 6.49309 20.9651 6.37808L20.6784 6.95142L21.2518 6.52905L21.0377 7.10239C21.3411 6.88188 21.6004 6.60636 21.8022 6.29016C21.7586 6.5422 21.6761 6.78593 21.5575 7.01258C21.8268 7.01987 22.0941 6.96561 22.3392 6.85395C22.1697 6.8962 22.015 6.98412 21.892 7.10813L22.4883 6.9839C22.3526 7.12552 22.196 7.24542 22.0239 7.33938L22.5972 7.26676C22.5078 7.32867 22.4407 7.41782 22.4061 7.52093C22.3832 7.62605 22.4615 7.75601 22.5685 7.74263C22.6056 7.73619 22.6405 7.72041 22.6698 7.69677L23.4343 7.19222C23.3528 7.49865 23.1695 7.76823 22.9145 7.95668L24.1777 7.43684C23.9357 7.55619 23.7401 7.75247 23.6216 7.9949L24.4472 7.85157L23.8949 8.32553L24.6479 8.26054C24.5238 8.39894 24.3771 8.51528 24.214 8.60456L25.4544 8.62366L24.7759 9.04794L25.4238 8.89887L24.9422 9.17025C25.0128 9.14468 25.0882 9.13519 25.1629 9.14246C25.2376 9.14973 25.3098 9.1736 25.3741 9.2123C25.4888 9.30785 25.4257 9.55821 25.2785 9.52381L26.9164 9.87546L25.806 10.2195L26.4768 10.2481L26.2035 10.5214C26.2789 10.5116 26.3553 10.5293 26.4187 10.5713C26.4821 10.6134 26.5281 10.6769 26.5483 10.7502C26.5686 10.8234 26.5617 10.9016 26.5289 10.9702C26.496 11.0388 26.4396 11.0932 26.3698 11.1234C26.626 11.1077 26.8752 11.0332 27.0979 10.9056L26.4061 11.3222L27.0884 11.3776L26.5341 11.8172L27.2986 11.8994C27.069 11.9823 26.8774 12.1461 26.7597 12.3599C27.0912 12.4103 27.4287 12.407 27.7592 12.3504C27.691 12.4853 27.5968 12.6055 27.482 12.7039C27.3672 12.8023 27.2341 12.877 27.0903 12.9237H28.1739C27.9946 13.1295 27.7657 13.2861 27.5088 13.3786L28.0955 13.5334C27.9368 13.7272 27.7173 13.8619 27.4725 13.9156L28.237 13.9404C28.0967 14.0912 27.9185 14.2015 27.721 14.2596C28.0592 14.3605 28.4059 14.4302 28.7568 14.4679C28.4155 14.6991 28.0294 14.856 27.6235 14.9285L28.2542 14.8865L27.8471 15.1636C27.9862 15.2006 28.1163 15.2656 28.2293 15.3547C28.1122 15.4509 27.9692 15.5101 27.8184 15.5248C27.8184 15.5248 27.893 15.6375 27.9216 15.6375C27.9503 15.6375 28.4548 15.5955 28.474 15.6108C28.4931 15.6261 28.0707 15.8764 28.0917 15.8841C28.1127 15.8917 28.5084 16.2663 28.365 16.2663C28.2217 16.2663 27.8031 16.0618 27.7802 16.0905C27.6178 16.2816 28.0631 16.5186 28.3077 16.574C28.1094 16.5993 27.9266 16.6941 27.7917 16.8416L28.5084 17.0327L28.2561 17.3499L27.6445 17.9003C27.7996 17.8447 27.9685 17.8407 28.1261 17.8889L27.4897 18.1813C27.7977 18.1924 28.0988 18.2756 28.3688 18.424C27.9228 18.558 27.4877 18.726 27.0674 18.9266H27.8318L27.3349 19.2802C27.6077 19.1614 27.9093 19.1249 28.2026 19.1751C28.1528 19.2865 28.0804 19.3864 27.9899 19.4683C27.8994 19.5502 27.7928 19.6124 27.677 19.6509C27.7585 19.6714 27.8344 19.7095 27.8995 19.7626C27.9646 19.8157 28.0172 19.8824 28.0537 19.958C28.0902 20.0337 28.1096 20.1165 28.1105 20.2004C28.1115 20.2844 28.094 20.3676 28.0592 20.444C27.9181 20.2414 27.7179 20.0872 27.4859 20.0026C27.6692 20.1184 27.7997 20.3017 27.849 20.5129C27.7603 20.5444 27.665 20.5526 27.5723 20.5365C27.4795 20.5204 27.3925 20.4807 27.3196 20.4211C27.5656 20.5678 27.767 20.7785 27.9025 21.0308C27.7598 21.0853 27.6019 21.0853 27.4591 21.0308C27.8527 21.2883 28.1576 21.6606 28.3325 22.0972L27.4993 21.9328C27.7108 22.0264 27.8787 22.1971 27.9689 22.4101C28.0591 22.6231 28.0647 22.8625 27.9847 23.0795C27.9748 23.2598 27.9493 23.4388 27.9083 23.6146L27.4687 23.5324C27.6133 23.6091 27.7428 23.7115 27.8509 23.8344C27.6107 23.8832 27.363 23.8832 27.1228 23.8344L27.9216 24.5568C27.9011 24.5827 27.8735 24.6021 27.8421 24.6127C27.8108 24.6233 27.7771 24.6246 27.745 24.6166C27.713 24.6085 27.6839 24.5913 27.6614 24.5672C27.6388 24.543 27.6236 24.5129 27.6178 24.4804C27.7024 24.5718 27.7582 24.6861 27.7783 24.8091L27.3177 24.8779L28.3172 25.2066C27.7437 25.3299 27.1558 25.373 26.5705 25.3347L27.6636 25.6099C27.1716 25.5968 26.6808 25.554 26.194 25.4818C26.6759 25.9399 27.3141 26.1975 27.979 26.2023C27.822 26.3034 27.6396 26.358 27.4529 26.3597C27.2662 26.3614 27.0828 26.3101 26.924 26.2119C27.0451 26.3659 27.1942 26.4956 27.3636 26.5941C27.2209 26.6212 27.0737 26.6105 26.9365 26.5628C26.7993 26.5152 26.6771 26.4324 26.5819 26.3227C26.7606 26.5968 26.9044 26.8922 27.01 27.2018C26.6813 27.0716 26.3908 26.8606 26.1653 26.5884C26.2495 26.7574 26.2665 26.952 26.2131 27.133C26.1589 27.1327 26.1057 27.1183 26.0587 27.0912C26.0118 27.064 25.9728 27.0251 25.9455 26.9782C25.9957 27.0557 26.0296 27.1426 26.045 27.2337C26.0605 27.3247 26.0572 27.4179 26.0353 27.5076C25.7868 27.3935 25.5583 27.2399 25.3588 27.0528L25.7601 27.8745C25.5972 27.8765 25.4391 27.8195 25.3148 27.7142C25.1905 27.6089 25.1084 27.4622 25.0836 27.3012L24.9575 27.8057L24.6823 27.2917L24.1796 28.1039L23.9885 27.7924C23.8815 28.0351 23.6388 28.3275 23.4152 28.1842L22.8648 28.5014C22.7424 28.4135 22.5781 28.5014 22.4367 28.5511C22.2952 28.6008 22.0716 28.5377 22.1022 28.3906L21.6703 28.8588L21.4142 28.5358C21.3822 28.5611 21.3443 28.5778 21.304 28.5843C21.2637 28.5908 21.2224 28.5868 21.1841 28.5728C21.1458 28.5588 21.1117 28.5353 21.0851 28.5044C21.0584 28.4735 21.0402 28.4363 21.032 28.3963L20.5638 28.9696C20.4962 28.8791 20.4073 28.8067 20.3049 28.759C20.2025 28.7113 20.0898 28.6898 19.977 28.6963L19.7859 28.9066C19.6649 28.8081 19.5682 28.6833 19.5031 28.5415L19.2718 28.8397L19.0157 28.5243C18.9792 28.5595 18.936 28.587 18.8887 28.6053C18.8414 28.6235 18.7909 28.6322 18.7402 28.6308C18.6895 28.6294 18.6396 28.6179 18.5934 28.597C18.5472 28.5761 18.5056 28.5462 18.4711 28.509L18.1959 28.7422C18.191 28.5529 18.1446 28.367 18.0602 28.1975C18.0462 28.2823 18.0058 28.3605 17.9447 28.421C17.8836 28.4814 17.8049 28.5209 17.72 28.5339L17.6703 27.7102C17.6732 27.7402 17.668 27.7705 17.655 27.7978C17.6421 27.825 17.6219 27.8482 17.5968 27.8649C17.5717 27.8816 17.5424 27.8912 17.5123 27.8925C17.4822 27.8939 17.4522 27.887 17.4257 27.8726L17.5709 27.1197C17.4492 27.4475 17.2529 27.7426 16.9976 27.9816C17.0264 27.5793 17.0962 27.181 17.2059 26.7928C17.0359 27.2657 16.7446 27.6855 16.3612 28.0102C16.3939 27.573 16.4925 27.1433 16.6536 26.7355C16.519 27.1027 16.3182 27.4422 16.0611 27.737L16.0076 26.8292L15.7324 27.9758C15.6383 27.4532 15.7403 26.9142 16.0191 26.4622C15.9563 26.9782 15.7779 27.4733 15.4973 27.9109L15.3788 26.3323L14.8246 27.7886C14.5836 27.366 14.5022 26.8709 14.5953 26.3934C14.4667 26.7246 14.3807 27.0707 14.3392 27.4235C14.2799 26.9452 14.3236 26.4598 14.4672 25.9997C14.4337 26.3292 14.3245 26.6464 14.1481 26.9266C13.9995 26.3976 14.0062 25.8371 14.1672 25.3117C14.1667 25.6479 14.0429 25.9722 13.8193 26.2233C13.7062 25.9452 13.6609 25.6442 13.6872 25.3451C13.7134 25.046 13.8105 24.7575 13.9703 24.5033C13.9179 24.7976 13.7803 25.07 13.5747 25.2869C13.5273 24.881 13.5132 24.4719 13.5327 24.0637L13.1677 24.5243L13.0893 23.5496L12.5389 24.0427L12.5026 23.0011C12.5752 23.0642 12.4204 23.1636 12.3497 23.0967C12.279 23.0298 12.2866 22.9209 12.2618 22.8292C12.2369 22.7374 12.1184 22.6495 12.0515 22.7202L12.2981 22.057C12.2486 22.1463 12.1717 22.2172 12.0787 22.2592C11.9858 22.3012 11.8817 22.3121 11.7821 22.2902C11.9221 22.0322 11.9882 21.7406 11.9732 21.4474C11.9288 21.4207 11.8902 21.3855 11.8595 21.3438C11.8289 21.3021 11.8067 21.2548 11.7945 21.2045C11.7822 21.1542 11.7801 21.102 11.7881 21.0508C11.7961 20.9997 11.8142 20.9507 11.8413 20.9065L11.417 20.9887L11.5011 20.6638L11.1973 20.6963C11.191 20.6282 11.1666 20.563 11.1266 20.5076C11.0866 20.4521 11.0325 20.4084 10.9698 20.381C11.1992 20.0401 11.2843 19.6224 11.2068 19.219L10.924 19.0814C10.9708 18.997 11.0339 18.9228 11.1097 18.8631C11.1855 18.8033 11.2724 18.7593 11.3654 18.7336L11.0902 18.6285L11.2814 18.1889L11.1743 17.1989L11.3826 16.7938C11.2641 16.8143 11.1423 16.8038 11.0291 16.7632L11.7152 15.4961L11.0367 16.1077C11.0942 15.7336 11.2303 15.376 11.4362 15.0585C11.3837 15.1617 11.3001 15.2459 11.1973 15.299C11.0944 15.3522 10.9774 15.3717 10.8628 15.3547C10.9418 15.2491 10.9971 15.1276 11.0248 14.9986C11.0525 14.8696 11.052 14.7362 11.0234 14.6074L11.1877 14.1698L10.8953 14.101L11.1915 13.8334L10.8743 13.7283L11.1113 13.4856C10.903 13.5831 10.7443 13.2066 10.9087 13.0422C11.073 12.8779 11.3368 12.9008 11.5642 12.9333L11.031 12.6887C11.1611 12.4989 11.3298 12.3387 11.526 12.2185C11.4489 12.3131 11.3483 12.3857 11.2342 12.429C11.1201 12.4723 10.9966 12.4847 10.8762 12.465C11.0234 12.105 11.2441 11.7795 11.5241 11.5095L11.1055 10.9132C11.1055 10.9132 11.6521 11.3165 11.5967 11.2133C11.5413 11.1101 11.2145 10.3647 11.2145 10.3647L11.6215 11.0011Z" fill="white"/>
<path d="M25.5232 16.3829L26.2705 15.8096C25.989 15.8443 25.71 15.8973 25.4353 15.9682C25.6716 15.6344 25.9356 15.3211 26.2246 15.0317C25.8281 15.2349 25.445 15.4634 25.0779 15.7159C25.0489 15.2972 25.0611 14.8766 25.1142 14.4603L24.8065 15.0069C24.6927 14.601 24.5077 14.2185 24.26 13.8774C24.1875 14.1733 24.151 14.4768 24.151 14.7814C24.0555 14.5641 23.9181 14.3679 23.7466 14.2039C23.575 14.0399 23.3728 13.9114 23.1515 13.8258C23.2589 14.1754 23.4292 14.5025 23.6541 14.7909C23.19 14.6151 22.7357 14.4141 22.2934 14.1889C22.3779 14.5779 22.5964 14.9249 22.9107 15.1693C22.5017 15.1426 22.0946 15.0967 21.6895 15.0317C21.8573 15.2311 22.0633 15.3948 22.2953 15.5133C22.1326 15.3999 21.9516 15.3152 21.7602 15.263C21.6971 15.2477 21.6092 15.2496 21.5958 15.3127C21.5942 15.3439 21.6045 15.3746 21.6245 15.3987L21.8691 15.7809L21.4506 15.6548C21.4452 15.9178 21.5112 16.1774 21.6417 16.4058L21.5117 16.3886L21.5691 16.6734L21.3933 16.5836V16.9085L21.0741 16.8091C21.1359 17.1459 21.1156 17.4927 21.0149 17.8201C21.0096 17.8487 20.9986 17.8761 20.9825 17.9004C20.9664 17.9247 20.9456 17.9455 20.9212 17.9615C20.8676 17.9816 20.8085 17.9816 20.7549 17.9615C19.656 17.692 18.4616 18.2539 17.3875 17.8908C17.572 17.8279 17.7659 17.7969 17.9609 17.7991C17.8252 17.6767 17.8634 17.4531 17.9475 17.2907C18.0595 17.1435 18.1331 16.9708 18.1615 16.7881C18.0778 16.8231 18.0022 16.8751 17.9397 16.9409C17.8772 17.0068 17.8291 17.0849 17.7984 17.1703L17.9647 16.1899L17.4124 16.7632C17.413 16.2878 17.3487 15.8146 17.2212 15.3566L16.9804 16.2013C16.8641 15.9142 16.7261 15.6363 16.5676 15.37L16.5944 15.7064C16.4552 15.6385 16.3265 15.551 16.2122 15.4464C16.2094 15.4785 16.2148 15.5107 16.2279 15.5401C16.2409 15.5695 16.2611 15.5951 16.2867 15.6146L15.6637 15.1407L15.9178 15.5936L15.249 15.2916L15.4095 15.6318C15.2408 15.5991 15.0827 15.5256 14.9489 15.4178C14.9296 15.5408 14.8881 15.6593 14.8266 15.7675C14.738 15.6291 14.6276 15.5058 14.4998 15.4025C14.533 15.5902 14.6336 15.7594 14.7826 15.8784L14.1653 15.4159L14.5896 16.1001L14.2227 15.8669C14.3558 16.0124 14.4412 16.1951 14.4673 16.3905C14.3081 16.3439 14.1558 16.2764 14.0144 16.1899C14.0373 16.402 14.0526 16.6161 14.0602 16.8301L13.7831 16.6199C13.9076 16.9244 13.9818 17.2471 14.0029 17.5755L13.6398 17.3079C13.7852 17.5245 13.8763 17.7729 13.9054 18.0322C13.9133 18.0715 13.9086 18.1123 13.892 18.1488C13.8118 18.2845 13.5901 18.0972 13.4506 18.166C13.699 18.3112 13.9417 18.468 14.1749 18.6342C14.0631 18.6245 13.9505 18.6382 13.8443 18.6744C14.0961 18.8333 14.3623 18.9683 14.6393 19.0776L14.1481 19.1273C14.2926 19.2109 14.43 19.3062 14.559 19.4121C14.3992 19.4599 14.2328 19.4825 14.066 19.4789C14.2995 19.548 14.5442 19.5707 14.7865 19.5458C14.7482 19.6318 14.6412 19.6624 14.5686 19.7197C14.496 19.7771 14.4788 19.9319 14.5686 19.9395C14.5977 19.9403 14.6263 19.9323 14.6508 19.9166L15.4917 19.4809C15.4917 19.4809 17.3818 18.2864 17.4506 18.2864C17.5194 18.2864 20.732 18.2176 20.9231 18.1908C21.1335 18.1389 21.3393 18.0699 21.5385 17.9844L23.9752 18.8368H24.4243C24.4243 18.8368 24.5772 19.219 24.5906 19.112C24.604 19.005 24.7033 18.6208 24.7033 18.6208C24.7628 18.7983 24.8519 18.9644 24.9671 19.112C24.9516 18.8919 24.9099 18.6744 24.8429 18.4641C24.9267 18.5623 25.0351 18.6364 25.1571 18.6787C25.279 18.721 25.41 18.7301 25.5366 18.7049C25.3981 18.5173 25.2288 18.3545 25.0359 18.2233C25.3399 18.2351 25.6443 18.2287 25.9475 18.2042L25.3149 18.0131C25.5442 17.9092 25.7959 17.8645 26.0469 17.8831C25.9046 17.7906 25.7759 17.6787 25.6646 17.5506L26.1577 17.7704C26.183 17.7858 26.2112 17.7956 26.2405 17.7992C26.2698 17.8028 26.2996 17.8002 26.3278 17.7914C26.3436 17.7802 26.3569 17.7657 26.3668 17.7491C26.3767 17.7324 26.383 17.7139 26.3853 17.6946C26.3876 17.6754 26.386 17.6559 26.3803 17.6373C26.3747 17.6188 26.3653 17.6016 26.3527 17.5869C26.3015 17.5313 26.235 17.492 26.1615 17.4742C26.0285 17.4435 25.9031 17.3863 25.7927 17.306L26.5266 16.9754C26.3143 16.9722 26.1038 17.0146 25.9093 17.0996C26.0524 16.9106 26.1528 16.6928 26.2036 16.4613L25.8214 16.7193" fill="#C4C4C4"/>
<path d="M22.7005 16.3408C22.6502 16.1783 22.6378 16.0063 22.6642 15.8382C22.7203 15.9287 22.7652 16.0256 22.798 16.1268C22.8687 16.0078 22.9599 15.9024 23.0674 15.8153C23.075 15.9307 23.054 16.0463 23.0063 16.1516C23.1697 15.9806 23.3705 15.8497 23.593 15.7694L23.3025 16.2262C23.5064 16.0934 23.722 15.9795 23.9466 15.886C23.8549 15.9892 23.7494 16.0792 23.6331 16.1535C23.8654 16.1239 24.1004 16.1239 24.3326 16.1535C24.2816 16.2163 24.216 16.2655 24.1415 16.2969C24.3973 16.2785 24.6537 16.3225 24.8888 16.4249C24.7487 16.505 24.5895 16.5454 24.4282 16.5415L24.755 16.702C24.6777 16.7325 24.5953 16.748 24.5123 16.7479C24.6121 16.8377 24.6742 16.962 24.6862 17.0957C24.6509 17.0864 24.6191 17.0672 24.5944 17.0403C24.6358 17.1908 24.6487 17.3476 24.6327 17.5028C24.6078 17.4965 24.5851 17.4839 24.5667 17.4661C24.5482 17.4484 24.5347 17.4261 24.5276 17.4015C24.5195 17.5626 24.4651 17.7179 24.3708 17.8487L24.302 17.585C24.2638 17.7601 24.2068 17.9305 24.1319 18.0933C24.1011 18.0659 24.0764 18.0324 24.0593 17.9949C24.0421 17.9574 24.0331 17.9167 24.0326 17.8755C23.9276 17.9971 23.7838 18.0788 23.6255 18.1067L23.7516 17.9959L23.207 18.0609C23.1975 18.0641 23.1874 18.0648 23.1777 18.0627C23.1679 18.0607 23.1589 18.0561 23.1515 18.0494C23.1343 18.0226 23.1687 17.9921 23.1993 17.9882C23.2299 17.9844 23.2643 17.9882 23.2872 17.9729C23.3102 17.9577 23.2394 17.9271 23.2031 17.9252H22.7731L22.9241 17.8736C22.9353 17.8702 22.9453 17.8635 22.9528 17.8545C22.97 17.8315 22.9432 17.8009 22.9203 17.7837C22.8089 17.7018 22.6928 17.6264 22.5725 17.5582C22.6049 17.5582 22.6069 17.5085 22.5973 17.478C22.5479 17.3195 22.4737 17.1699 22.3775 17.0346L22.4903 17.048L22.2132 16.53L22.324 16.5797C22.3361 16.5136 22.3348 16.4458 22.3204 16.3802C22.3059 16.3145 22.2786 16.2524 22.2399 16.1975C22.3287 16.2471 22.4083 16.3118 22.475 16.3886L22.3489 15.8688L22.7005 16.3408Z" fill="#16191E"/>
<path d="M23.5604 17.9003C24.0375 17.9003 24.4243 17.5135 24.4243 17.0364C24.4243 16.5594 24.0375 16.1726 23.5604 16.1726C23.0834 16.1726 22.6966 16.5594 22.6966 17.0364C22.6966 17.5135 23.0834 17.9003 23.5604 17.9003Z" fill="white"/>
<path d="M23.4265 17.6653C23.8287 17.6653 24.1547 17.3393 24.1547 16.9371C24.1547 16.535 23.8287 16.209 23.4265 16.209C23.0244 16.209 22.6984 16.535 22.6984 16.9371C22.6984 17.3393 23.0244 17.6653 23.4265 17.6653Z" fill="#2C1C12"/>
<path d="M16.6095 17.0689C16.6597 16.907 16.6721 16.7357 16.6458 16.5682C16.589 16.6576 16.5441 16.754 16.5121 16.8549C16.4443 16.7361 16.3556 16.6306 16.2502 16.5434C16.2425 16.6582 16.2635 16.7732 16.3114 16.8778C16.1484 16.7053 15.9466 16.5743 15.7228 16.4956L16.0152 16.9505C15.8109 16.8184 15.5953 16.7046 15.3711 16.6103C15.4618 16.7144 15.5674 16.8046 15.6845 16.8778C15.4523 16.8492 15.2173 16.8492 14.9851 16.8778C15.0331 16.9388 15.0946 16.9879 15.1647 17.0212C14.9088 17.0038 14.6525 17.0484 14.4174 17.1511C14.5586 17.2302 14.7182 17.2704 14.8799 17.2677L14.5512 17.4282C14.6291 17.4588 14.7122 17.4738 14.7959 17.4722C14.696 17.562 14.6339 17.6863 14.6219 17.82C14.6572 17.8107 14.689 17.7914 14.7137 17.7646C14.6715 17.9156 14.6585 18.0732 14.6754 18.229C14.7 18.2216 14.7224 18.2083 14.7407 18.1904C14.759 18.1724 14.7727 18.1502 14.7806 18.1258C14.7874 18.2871 14.842 18.4427 14.9373 18.573L15.0042 18.3112C15.0444 18.4857 15.1014 18.6559 15.1743 18.8195C15.2058 18.7922 15.2311 18.7584 15.2485 18.7205C15.266 18.6827 15.2752 18.6415 15.2755 18.5998C15.3778 18.7229 15.5197 18.8067 15.6769 18.8367L15.5507 18.724L16.0954 18.7909C16.1145 18.7909 16.1394 18.7909 16.1508 18.7775C16.1623 18.7641 16.1336 18.7202 16.1031 18.7163C16.0723 18.7201 16.041 18.7148 16.0132 18.7011C16.0132 18.6647 16.0629 18.6552 16.0992 18.6552H16.5293L16.3783 18.6017C16.3725 18.6006 16.3669 18.5983 16.362 18.595C16.3571 18.5918 16.3528 18.5875 16.3496 18.5826C16.3324 18.5596 16.3496 18.5291 16.3821 18.5119C16.4939 18.4305 16.61 18.3552 16.7299 18.2863C16.6974 18.2863 16.6955 18.2367 16.7051 18.2061C16.7541 18.0475 16.8283 17.8978 16.9249 17.7627L16.8121 17.7761L17.0892 17.2581L16.9784 17.3078C16.9651 17.2418 16.9657 17.1737 16.9802 17.1079C16.9947 17.0421 17.0227 16.98 17.0625 16.9256C16.9736 16.9751 16.894 17.0398 16.8274 17.1167L16.9535 16.5969L16.6095 17.0689Z" fill="#16191E"/>
<path d="M15.7476 18.6284C16.2247 18.6284 16.6115 18.2417 16.6115 17.7646C16.6115 17.2875 16.2247 16.9008 15.7476 16.9008C15.2706 16.9008 14.8838 17.2875 14.8838 17.7646C14.8838 18.2417 15.2706 18.6284 15.7476 18.6284Z" fill="white"/>
<path d="M15.8834 18.3953C16.2855 18.3953 16.6115 18.0693 16.6115 17.6671C16.6115 17.265 16.2855 16.939 15.8834 16.939C15.4813 16.939 15.1553 17.265 15.1553 17.6671C15.1553 18.0693 15.4813 18.3953 15.8834 18.3953Z" fill="#2C1C12"/>
<path d="M22.0334 21.7034C22.5647 21.6365 23.0979 21.5716 23.6292 21.5123C23.3055 21.3857 22.9569 21.3353 22.6106 21.3652C23.041 20.9457 23.5241 20.5841 24.0477 20.2892C23.3388 20.4931 22.6771 20.8347 22.1003 21.2944C22.1065 20.9695 22.2239 20.6566 22.4328 20.4077C22.1291 20.5451 21.8659 20.7583 21.6684 21.0269C21.8032 20.8269 21.895 20.6011 21.9378 20.3637L21.2345 21.0861C21.4235 20.4881 21.7353 19.936 22.15 19.4655C21.8226 19.5896 21.5103 19.7506 21.2192 19.9452C20.9266 20.1445 20.7109 20.4378 20.6077 20.7765L20.9307 19.3394C20.7325 19.665 20.5588 20.0048 20.4108 20.3561C20.2703 20.2078 20.1835 20.0167 20.1643 19.8133C20.1341 20.0691 20.1813 20.3281 20.3 20.5567C20.1241 20.4075 19.9254 20.2875 19.7114 20.2013C19.7449 20.4444 19.8634 20.6678 20.0458 20.832C19.4514 20.8052 18.8437 20.7823 18.278 20.9657C18.831 20.9963 19.3846 21.004 19.9388 20.9887C19.7825 21.0656 19.6067 21.0935 19.4342 21.0689C18.9579 21.0491 18.4838 21.1448 18.0525 21.348C18.3564 21.3728 18.6621 21.3862 18.9679 21.3881C18.6473 21.5076 18.343 21.6668 18.062 21.8621C18.383 21.8648 18.7033 21.8334 19.0176 21.7684C18.6463 21.8812 18.2995 22.0627 17.9952 22.3035C18.3832 22.2661 18.7671 22.1932 19.1418 22.0857C18.7596 22.3762 18.3774 22.6743 17.9952 22.9762C18.171 22.9762 18.3086 22.8348 18.4405 22.7144C18.5723 22.594 18.7596 22.4889 18.9144 22.5749C18.666 22.6953 18.3927 22.8406 18.3028 23.1024C18.9267 22.5628 19.707 22.2373 20.5293 22.1736L19.9923 22.6055L20.6478 22.3972C20.8293 22.441 21.0186 22.441 21.2001 22.3972C21.5097 22.3246 21.9111 22.3245 22.622 22.6342C23.333 22.9438 22.0028 22.1239 22.0028 22.1239C22.0028 22.1239 23.6598 21.8869 23.6063 21.8869C23.5527 21.8869 22.0334 21.7034 22.0334 21.7034Z" fill="#D1D0D1"/>
<path d="M21.8022 22.4336C21.9446 22.4266 22.0866 22.4539 22.2163 22.5131C22.3459 22.5723 22.4595 22.6616 22.5476 22.7737C22.8127 23.0375 22.9677 23.392 22.9814 23.7656C22.9673 23.999 22.9184 24.229 22.8362 24.4479L22.6737 24.9429C22.6527 25.0232 22.6184 25.0994 22.5724 25.1684C22.5138 25.2354 22.444 25.2917 22.366 25.3347L21.6799 25.7781C21.5074 25.9061 21.3132 26.0019 21.1066 26.0609C20.8733 26.1011 20.6334 26.0718 20.4167 25.9768C20.2024 25.8806 19.9982 25.7634 19.807 25.6271L19.5337 25.436C19.3962 25.354 19.268 25.2572 19.1515 25.1474C18.9544 24.9121 18.8185 24.6318 18.7559 24.3313C18.6366 23.9862 18.6253 23.6129 18.7234 23.2611C18.7558 23.1563 18.8233 23.0659 18.9145 23.005C18.9546 22.9782 19.0024 22.961 19.0273 22.919C19.0374 22.8951 19.0445 22.8701 19.0483 22.8445C19.0732 22.729 19.1314 22.6233 19.2156 22.5405C19.2998 22.4576 19.4064 22.4012 19.5223 22.3782L19.3923 22.2654C19.5465 22.2675 19.6993 22.2939 19.8452 22.3437L20.0994 22.3858C20.0577 22.2228 20.0512 22.0527 20.0803 21.887C20.0786 21.9296 20.0887 21.9718 20.1097 22.0089C20.1306 22.0461 20.1615 22.0766 20.1988 22.0972C20.1737 21.906 20.0903 21.7271 19.9599 21.585C20.0338 21.6526 20.1184 21.7075 20.2103 21.7475C20.135 21.6163 20.0979 21.4667 20.1032 21.3156L20.3842 21.5755C20.371 21.4405 20.3801 21.3043 20.4109 21.1722C20.4632 21.2458 20.4907 21.3342 20.4893 21.4245C20.5479 21.2885 20.6415 21.1704 20.7607 21.0824C20.7436 21.188 20.7107 21.2904 20.6632 21.3863C20.7452 21.3504 20.8337 21.3318 20.9231 21.3318C21.0126 21.3318 21.1011 21.3504 21.183 21.3863C21.0091 21.4895 20.7721 21.4398 20.6001 21.5468L21.1735 21.4914C21.0665 21.6366 20.7912 21.5697 20.7052 21.7245L21.0569 21.6596C20.9668 21.7299 20.8837 21.8086 20.8084 21.8946C20.8822 21.8542 20.9633 21.8289 21.047 21.82C21.1306 21.8112 21.2152 21.819 21.2958 21.843C21.1702 21.9226 21.0385 21.9922 20.9021 22.0513L21.1314 22.0284C21.1314 22.0838 21.0779 22.1221 21.0263 22.1412C20.9747 22.1603 20.9078 22.187 20.9059 22.2425C21.0908 22.2011 21.2787 22.1749 21.4678 22.1641C21.3113 22.2189 21.1633 22.2954 21.0282 22.3915L21.8022 22.4336Z" fill="#16191E"/>
<g style="mix-blend-mode:soft-light">
<path d="M20.2639 22.7356C20.1779 22.7356 19.2606 22.898 19.0828 23.1178C18.9051 23.3376 18.5917 23.9453 19.0828 24.0734C19.574 24.2014 21.3514 24.7212 21.8712 24.4384C22.391 24.1555 22.8268 23.9511 22.5974 23.3911C22.3681 22.8311 21.0513 22.6515 20.9022 22.6515C20.7532 22.6515 20.2639 22.7356 20.2639 22.7356Z" fill="#E8E8E8"/>
</g>
<g style="mix-blend-mode:soft-light">
<g style="mix-blend-mode:soft-light">
<path d="M8.73216 15.2306C8.36177 15.4503 8.02779 15.7262 7.74219 16.0486C7.90543 15.9139 8.10497 15.8308 8.31553 15.8097C8.1008 16.223 7.85549 16.6197 7.58165 16.9965L8.35758 16.6582L7.68868 18.0916C7.71371 18.0006 7.76176 17.9177 7.82819 17.8508C7.89062 18.1458 7.84803 18.4534 7.70779 18.7203C7.71805 18.6852 7.74085 18.6551 7.77186 18.6357C7.80287 18.6164 7.83992 18.6091 7.87597 18.6152L7.75748 19.5536L8.11104 19.0987C8.11825 19.362 8.06531 19.6235 7.95624 19.8632L9.10292 18.0476C9.01508 18.1491 8.8923 18.2139 8.75891 18.2292L9.08763 17.6176L8.8086 17.6807L9.05323 17.1169C8.94821 17.152 8.8559 17.2173 8.7879 17.3047C8.7199 17.3921 8.67923 17.4976 8.671 17.608C8.64616 17.4761 8.6479 17.3405 8.67613 17.2093C8.70435 17.078 8.75848 16.9537 8.83536 16.8436C8.98771 16.6292 9.16763 16.4358 9.37048 16.2683C9.19553 16.3175 9.02828 16.3908 8.87358 16.4862C8.93206 16.2947 9.05322 16.1285 9.21759 16.0142L8.68056 15.9989C8.87969 15.857 9.07108 15.7045 9.2539 15.5421L9.02647 15.4676L9.22905 15.2898L8.73216 15.2306Z" fill="#E8E8E8"/>
</g>
</g>
<g style="mix-blend-mode:soft-light">
<g style="mix-blend-mode:soft-light">
<path d="M7.81476 21.1474C7.48011 21.5271 7.25196 21.9887 7.15351 22.4852C7.31574 22.2421 7.49588 22.0115 7.69245 21.7952C7.67879 22.1083 7.64688 22.4204 7.59689 22.7298C7.68329 22.5491 7.80553 22.3878 7.95619 22.2558C7.76645 22.6785 7.65321 23.1314 7.62174 23.5936C7.68672 23.2955 7.77463 22.9649 8.03454 22.8082C8.05366 23.1827 8.05812 23.5586 8.04792 23.9357C8.07171 23.7705 8.14424 23.6161 8.25624 23.4923C8.24135 23.9675 8.31523 24.4413 8.47411 24.8894L8.70344 24.1249L8.85442 25.0805C8.9466 24.8407 9.01446 24.5923 9.057 24.339C9.11856 24.5122 9.21702 24.67 9.34558 24.8015C9.39567 24.7043 9.42306 24.5971 9.42571 24.4879C9.42836 24.3786 9.40619 24.2702 9.36087 24.1708L9.7259 24.3428C9.6828 24.0975 9.54565 23.8788 9.34367 23.7331L9.87688 23.7484C9.58209 23.4997 9.25323 23.2944 8.90029 23.1388C9.07409 23.1414 9.2466 23.169 9.41248 23.221C9.3286 23.0115 9.23092 22.8078 9.12007 22.6113L9.43923 22.7221C9.48105 22.6481 9.49699 22.5622 9.48453 22.4781C9.47207 22.394 9.43192 22.3165 9.37043 22.2577C9.23998 22.1471 9.11915 22.0257 9.00923 21.8946L8.7818 22.4833C8.72823 22.418 8.69336 22.3395 8.6809 22.2561C8.66845 22.1726 8.67888 22.0873 8.71109 22.0093C8.78003 21.8525 8.79021 21.6761 8.73975 21.5124L8.21037 22.0609C8.48149 21.7956 8.66433 21.4533 8.73402 21.0805C8.59493 21.0975 8.46052 21.1417 8.33842 21.2104C8.36299 21.186 8.38047 21.1553 8.38896 21.1217C8.39746 21.0881 8.39666 21.0529 8.38664 21.0197C8.37663 20.9865 8.35778 20.9567 8.33212 20.9334C8.30645 20.9101 8.27494 20.8942 8.24095 20.8875L7.81476 21.1474Z" fill="#E8E8E8"/>
</g>
</g>
<g style="mix-blend-mode:soft-light">
<g style="mix-blend-mode:soft-light">
<path d="M10.1578 25.8106L10.2897 26.489C10.2828 26.314 10.3196 26.1399 10.3967 25.9826C10.5973 26.317 10.4636 26.7757 10.6604 27.1121C10.6495 26.9633 10.6922 26.8155 10.7808 26.6954L11.1057 27.479L11.1726 26.8885L11.5778 27.9587C11.6371 27.823 11.6588 27.6738 11.6408 27.5268L12.0116 27.932C12.057 27.7339 12.0484 27.5274 11.9867 27.3338C12.0169 27.3344 12.0465 27.3422 12.0731 27.3565C12.0996 27.3708 12.1224 27.3912 12.1396 27.4159C12.2726 27.2414 12.3706 27.0428 12.4282 26.8311C12.4165 26.959 12.4453 27.0874 12.5104 27.1981C12.5333 26.6974 12.0173 26.2979 12.0307 25.7972L11.8912 26.5387C11.7822 26.2597 11.6599 25.9845 11.5281 25.715C11.4981 25.9457 11.4911 26.1787 11.507 26.4107C11.4343 25.9599 11.3373 25.5133 11.2166 25.0729L10.9356 25.7169L10.7082 24.9812L10.5305 25.4647C10.3994 25.3256 10.2997 25.1601 10.238 24.9792C10.1619 25.0755 10.125 25.1971 10.1348 25.3194L10.1578 25.8106Z" fill="#E8E8E8"/>
</g>
</g>
<g style="mix-blend-mode:soft-light">
<g style="mix-blend-mode:soft-light">
<path d="M29.0989 23.1043C29.0906 22.8384 29.1519 22.5749 29.2766 22.3398C29.4155 22.6199 29.5047 22.9218 29.5404 23.2323C29.5667 23.0377 29.6616 22.8588 29.8079 22.7278C29.8079 23.1597 29.8079 23.5897 29.7869 24.0216L30.3144 23.347C30.2398 23.7025 30.173 24.0618 30.1118 24.4192L30.6278 23.9452C30.6144 24.3274 30.3029 24.6332 30.064 24.939C29.8883 25.1618 29.7425 25.4066 29.6302 25.6671C29.6482 25.3599 29.6087 25.052 29.5136 24.7593L29.1753 25.411C29.2594 25.1091 29.2594 24.7899 29.1753 24.488C29.0412 24.704 28.9909 24.9617 29.0339 25.2123C29.0604 24.7911 29.0648 24.3688 29.0473 23.9471L28.8084 24.7899C28.8797 24.2939 28.9072 23.7925 28.8906 23.2916L29.3416 24.0025L29.0989 23.1043Z" fill="#E8E8E8"/>
</g>
</g>
<g style="mix-blend-mode:soft-light">
<g style="mix-blend-mode:soft-light">
<path d="M28.778 19.305C28.7896 19.1861 28.8289 19.0716 28.8927 18.9706C28.9077 19.0896 28.9426 19.2052 28.9959 19.3127C29.0289 19.126 29.0976 18.9476 29.1985 18.7871L29.3762 19.6662C29.4187 19.5607 29.5011 19.4763 29.6055 19.4312L29.4431 20.5664L29.7107 19.7847C29.5941 20.339 29.7833 20.9314 29.5922 21.4704C29.5555 21.3328 29.5076 21.1986 29.4488 21.069C29.4286 21.2544 29.3762 21.4348 29.294 21.6022C29.2831 21.3698 29.2511 21.1389 29.1985 20.9123C29.0437 21.0002 29.1641 21.3098 29.0074 21.3805L28.9902 20.6715C28.8646 20.8949 28.7167 21.1049 28.5487 21.2983L28.7264 20.6199C28.8154 20.3457 28.8524 20.0572 28.8354 19.7694L29.1335 20.316L28.778 19.305Z" fill="#E8E8E8"/>
</g>
</g>
<g style="mix-blend-mode:soft-light">
<g style="mix-blend-mode:soft-light">
<path d="M30.2989 18.0723V17.8698C30.3731 17.9873 30.4631 18.0941 30.5665 18.187C30.5483 18.0423 30.5808 17.8958 30.6582 17.7723C30.7731 17.9629 30.8728 18.1623 30.9564 18.3686C30.8772 18.1338 30.8177 17.8928 30.7786 17.6481C31.0557 17.9596 31.352 18.2883 31.436 18.6954C31.4673 18.8539 31.4814 19.0154 31.4781 19.177C31.4781 19.4407 31.4781 19.7025 31.4666 19.9644C31.4319 19.9007 31.3803 19.8478 31.3176 19.8115C31.3134 19.976 31.2777 20.1382 31.2124 20.2893L31.0863 19.6586C31.0863 19.9758 31.0538 20.3237 30.8321 20.5511C30.9284 19.8967 30.8182 19.2287 30.5168 18.6399L31.0099 19.0948L30.2989 18.0723Z" fill="#E8E8E8"/>
</g>
</g>
<g style="mix-blend-mode:soft-light">
<g style="mix-blend-mode:soft-light">
<path d="M29.0437 15.0681L29.0666 15.1369C29.1135 15.0317 29.1782 14.9354 29.2577 14.8521C29.3074 14.9572 29.3514 15.0624 29.3915 15.1694C29.3839 15.0002 29.4013 14.8308 29.4431 14.6667C29.4851 14.6667 29.5062 14.7183 29.5157 14.7604L29.898 16.36C29.9113 16.4135 29.919 16.4842 29.8731 16.5148C29.8731 16.5016 29.8701 16.4885 29.8644 16.4766C29.8588 16.4646 29.8505 16.4541 29.8403 16.4457C29.8301 16.4373 29.8181 16.4312 29.8053 16.428C29.7925 16.4247 29.7791 16.4244 29.7661 16.4269C29.7823 16.5269 29.7823 16.6289 29.7661 16.7289L29.4469 16.3982C29.4297 16.381 29.4087 16.3619 29.3858 16.3715C29.3628 16.381 29.3609 16.3982 29.3552 16.4154L29.2482 16.7824C29.2188 16.6423 29.1779 16.5048 29.1259 16.3715C29.0509 16.593 28.9602 16.8089 28.8545 17.0174C28.8315 17.0633 28.7838 17.1149 28.7417 17.0863V15.4216C28.7417 15.4216 29.2023 16.0791 29.1239 15.995C29.0456 15.9109 29.0437 15.0681 29.0437 15.0681Z" fill="#E8E8E8"/>
</g>
</g>
<path d="M53.4815 20.8865H58.1693V22.5886H53.4815V20.8865ZM51.5004 24.5L54.8767 14.9988H57.0113L60.2761 24.5H58.4344L55.6859 16.2545H56.2161L53.342 24.5H51.5004ZM63.0417 17.6775L63.5021 19.561V24.5H61.6744V17.6775H63.0417ZM63.1254 20.4958L62.7906 20.3423V18.9472L62.9161 18.7937C63.0184 18.6263 63.1719 18.4449 63.3765 18.2496C63.5905 18.0542 63.8323 17.8868 64.102 17.7473C64.3811 17.5985 64.6694 17.5241 64.967 17.5241C65.1159 17.5241 65.2507 17.5334 65.3716 17.552C65.4926 17.5706 65.5856 17.6031 65.6507 17.6496V19.3099H65.2042C64.5996 19.3099 64.1346 19.4076 63.809 19.6029C63.4835 19.7889 63.2556 20.0866 63.1254 20.4958ZM68.8087 24.5698C68.5018 24.5698 68.2181 24.5047 67.9576 24.3744C67.7065 24.2442 67.5019 24.0442 67.3438 23.7745C67.1949 23.4955 67.1205 23.1374 67.1205 22.7002V14.9988H68.9343V22.0584C68.9343 22.384 68.9994 22.5979 69.1296 22.7002C69.2598 22.7932 69.4179 22.8397 69.604 22.8397V24.4721C69.5017 24.5093 69.3761 24.5326 69.2273 24.5419C69.0877 24.5605 68.9482 24.5698 68.8087 24.5698ZM74.1899 24.6395C73.5109 24.6395 72.9156 24.4953 72.404 24.207C71.8925 23.9094 71.4972 23.4955 71.2181 22.9653C70.9391 22.4351 70.7996 21.8119 70.7996 21.0957C70.7996 20.3889 70.9391 19.7703 71.2181 19.2402C71.4972 18.7007 71.8925 18.2821 72.404 17.9845C72.9156 17.6775 73.5109 17.5241 74.1899 17.5241C74.8782 17.5241 75.4734 17.6775 75.9757 17.9845C76.4873 18.2914 76.8826 18.7146 77.1616 19.2541C77.4407 19.7843 77.5802 20.3935 77.5802 21.0818C77.5802 21.1841 77.5755 21.2864 77.5662 21.3887C77.5662 21.4818 77.5569 21.5608 77.5383 21.6259H72.2924V20.2586H76.1571L75.878 20.9144C75.878 20.3377 75.7385 19.868 75.4595 19.5052C75.1898 19.1425 74.7665 18.9611 74.1899 18.9611C73.6876 18.9611 73.283 19.1192 72.9761 19.4355C72.6691 19.7424 72.5156 20.1563 72.5156 20.6772V21.4166C72.5156 21.9654 72.6691 22.3979 72.9761 22.7142C73.2923 23.0211 73.7202 23.1746 74.2596 23.1746C74.734 23.1746 75.106 23.0769 75.3758 22.8816C75.6455 22.6863 75.878 22.4444 76.0734 22.1561L77.343 22.8816C77.036 23.449 76.6175 23.8861 76.0873 24.1931C75.5665 24.4907 74.934 24.6395 74.1899 24.6395ZM81.851 24.6674C81.2371 24.6674 80.693 24.5186 80.2186 24.221C79.7442 23.914 79.3722 23.4908 79.1024 22.9513C78.842 22.4119 78.7118 21.7933 78.7118 21.0957C78.7118 20.3889 78.842 19.7703 79.1024 19.2402C79.3629 18.7007 79.7303 18.2821 80.2046 17.9845C80.679 17.6775 81.2278 17.5241 81.851 17.5241C82.4462 17.5241 82.9671 17.6729 83.4136 17.9705C83.8693 18.2589 84.2228 18.6681 84.4739 19.1983C84.725 19.7285 84.8506 20.361 84.8506 21.0957C84.8506 21.8491 84.725 22.4909 84.4739 23.0211C84.2228 23.5513 83.874 23.9605 83.4275 24.2489C82.9811 24.5279 82.4555 24.6674 81.851 24.6674ZM82.1719 22.9792C82.6462 22.9792 83.0322 22.8072 83.3299 22.463C83.6275 22.1096 83.7763 21.6538 83.7763 21.0957C83.7763 20.5284 83.6275 20.0726 83.3299 19.7285C83.0322 19.375 82.6462 19.1983 82.1719 19.1983C81.7068 19.1983 81.3208 19.375 81.0139 19.7285C80.7162 20.0819 80.5674 20.5377 80.5674 21.0957C80.5674 21.6538 80.7162 22.1096 81.0139 22.463C81.3208 22.8072 81.7068 22.9792 82.1719 22.9792ZM83.6926 27.1509V22.7142H83.8182V19.296H83.6926L84.153 17.6775H85.5203V27.1509H83.6926ZM89.7657 24.6674C89.2541 24.6674 88.8449 24.5884 88.5379 24.4302C88.231 24.2721 87.9938 24.0628 87.8264 23.8024C87.6683 23.5327 87.5613 23.2257 87.5055 22.8816C87.4497 22.5374 87.4218 22.1793 87.4218 21.8073V17.6775H89.2495V21.8212C89.2495 22.2398 89.3378 22.5188 89.5146 22.6584C89.7006 22.7979 89.9192 22.8676 90.1703 22.8676C90.4028 22.8676 90.6354 22.8258 90.8679 22.7421C91.1004 22.6584 91.319 22.5374 91.5236 22.3793C91.7376 22.2119 91.9143 22.0212 92.0538 21.8073L92.277 22.77H91.8306V17.6775H93.6583V24.5H92.291L91.9143 23.2025L92.5003 23.2164C92.2677 23.4862 92.0026 23.7326 91.705 23.9559C91.4167 24.1791 91.1051 24.3558 90.7702 24.486C90.4447 24.607 90.1098 24.6674 89.7657 24.6674ZM97.4913 24.5H95.6636V17.6775H97.4913V24.5ZM96.4868 16.8125L95.6078 15.9057L97.7982 13.8826L98.6912 14.7756L96.4868 16.8125ZM103.603 17.5241C104.068 17.5241 104.44 17.6031 104.719 17.7613C105.008 17.9194 105.222 18.1333 105.361 18.403C105.51 18.6728 105.608 18.9797 105.654 19.3239C105.701 19.6587 105.724 20.0075 105.724 20.3703V24.5H103.896V20.3563C103.896 19.9377 103.812 19.6587 103.645 19.5192C103.487 19.3797 103.282 19.3099 103.031 19.3099C102.799 19.3099 102.561 19.3564 102.32 19.4494C102.078 19.5331 101.85 19.6587 101.636 19.8261C101.431 19.9843 101.255 20.1656 101.106 20.3703L100.869 19.4215H101.329V24.5H99.5014V17.6775H100.869L101.245 18.989L100.659 18.9611C100.901 18.6821 101.176 18.4356 101.483 18.2217C101.799 18.0077 102.134 17.8403 102.487 17.7194C102.84 17.5892 103.213 17.5241 103.603 17.5241ZM111.256 24.5L112.958 14.9988H114.59L116.976 21.6399H116.92L119.306 14.9988H120.938L122.64 24.5H120.785L120.101 20.161C119.999 19.575 119.911 18.989 119.836 18.403C119.771 17.8078 119.72 17.2171 119.683 16.6312H120.185C120.027 17.2915 119.869 17.9008 119.711 18.4588C119.562 19.0076 119.385 19.5703 119.18 20.147L117.66 24.3744H116.237L114.716 20.147C114.511 19.5703 114.33 19.0076 114.172 18.4588C114.014 17.9008 113.86 17.2915 113.711 16.6312H114.2C114.172 17.2171 114.121 17.8078 114.046 18.403C113.981 18.989 113.897 19.575 113.795 20.161L113.111 24.5H111.256ZM126.298 24.6953C125.796 24.6953 125.354 24.6023 124.973 24.4163C124.591 24.221 124.298 23.9512 124.094 23.6071C123.889 23.2536 123.787 22.8444 123.787 22.3793C123.787 21.9143 123.894 21.5097 124.108 21.1655C124.331 20.8214 124.633 20.5563 125.015 20.3703C125.396 20.1749 125.828 20.0773 126.312 20.0773C126.972 20.0773 127.507 20.2307 127.917 20.5377C128.335 20.8353 128.619 21.2632 128.768 21.8212L127.917 21.7096V20.0633C127.917 19.8029 127.824 19.5703 127.638 19.3657C127.452 19.1611 127.149 19.0588 126.731 19.0588C126.47 19.0588 126.182 19.0913 125.866 19.1564C125.549 19.2122 125.219 19.3239 124.875 19.4913L124.331 18.1519C124.731 17.9566 125.154 17.8031 125.601 17.6915C126.056 17.5799 126.512 17.5241 126.968 17.5241C127.591 17.5241 128.107 17.6357 128.517 17.8589C128.926 18.0822 129.233 18.3891 129.437 18.7797C129.642 19.1704 129.744 19.6169 129.744 20.1191V24.5H128.293L127.903 23.2025L128.768 22.9513C128.61 23.5001 128.317 23.928 127.889 24.2349C127.47 24.5419 126.94 24.6953 126.298 24.6953ZM126.8 23.3001C127.135 23.3001 127.405 23.2164 127.61 23.049C127.814 22.8816 127.917 22.6584 127.917 22.3793C127.917 22.091 127.814 21.8678 127.61 21.7096C127.405 21.5422 127.135 21.4585 126.8 21.4585C126.466 21.4585 126.196 21.5422 125.991 21.7096C125.787 21.8678 125.684 22.091 125.684 22.3793C125.684 22.6584 125.787 22.8816 125.991 23.049C126.196 23.2164 126.466 23.3001 126.8 23.3001ZM133.986 24.6814C133.465 24.6814 132.967 24.5744 132.493 24.3605C132.028 24.1466 131.614 23.7745 131.251 23.2443L132.367 22.2677C132.665 22.6025 132.949 22.8444 133.218 22.9932C133.497 23.1327 133.809 23.2025 134.153 23.2025C134.386 23.2025 134.572 23.1467 134.711 23.0351C134.851 22.9234 134.92 22.7839 134.92 22.6165C134.92 22.5049 134.883 22.4072 134.809 22.3235C134.734 22.2305 134.595 22.1421 134.39 22.0584C134.195 21.9747 133.907 21.8864 133.525 21.7933C132.818 21.6073 132.288 21.3562 131.935 21.0399C131.581 20.7144 131.405 20.2586 131.405 19.6727C131.405 19.2727 131.507 18.91 131.711 18.5844C131.916 18.2496 132.209 17.9845 132.59 17.7892C132.981 17.5938 133.442 17.4962 133.972 17.4962C134.595 17.4962 135.125 17.6171 135.562 17.8589C136.009 18.1008 136.367 18.3937 136.636 18.7379L135.451 19.7285C135.274 19.5424 135.046 19.3797 134.767 19.2402C134.488 19.1006 134.162 19.0309 133.79 19.0309C133.586 19.0309 133.404 19.0774 133.246 19.1704C133.088 19.2634 133.009 19.3983 133.009 19.575C133.009 19.7424 133.093 19.8819 133.26 19.9936C133.437 20.1052 133.772 20.2214 134.265 20.3423C135.102 20.5377 135.702 20.8028 136.064 21.1376C136.427 21.4724 136.609 21.9189 136.609 22.477C136.609 22.9234 136.492 23.3141 136.26 23.6489C136.027 23.9745 135.711 24.2303 135.311 24.4163C134.92 24.593 134.479 24.6814 133.986 24.6814ZM141.246 24.6674C140.548 24.6674 139.939 24.514 139.418 24.207C138.897 23.9001 138.493 23.4769 138.204 22.9374C137.925 22.3979 137.786 21.7794 137.786 21.0818C137.786 20.3935 137.925 19.7796 138.204 19.2402C138.493 18.7007 138.897 18.2821 139.418 17.9845C139.939 17.6775 140.548 17.5241 141.246 17.5241C141.971 17.5241 142.609 17.7101 143.157 18.0822C143.715 18.4449 144.115 18.9379 144.357 19.561L142.683 20.2865C142.543 19.9703 142.353 19.7238 142.111 19.5471C141.878 19.3704 141.585 19.282 141.232 19.282C140.776 19.282 140.395 19.4448 140.088 19.7703C139.781 20.0866 139.628 20.5237 139.628 21.0818C139.628 21.6492 139.781 22.091 140.088 22.4072C140.395 22.7235 140.776 22.8816 141.232 22.8816C141.585 22.8816 141.878 22.7979 142.111 22.6305C142.353 22.4537 142.543 22.2072 142.683 21.891L144.357 22.6165C144.115 23.2304 143.715 23.728 143.157 24.1093C142.599 24.4814 141.962 24.6674 141.246 24.6674ZM148.779 24.6674C148.072 24.6674 147.449 24.5186 146.909 24.221C146.379 23.914 145.965 23.4955 145.668 22.9653C145.37 22.4258 145.221 21.8026 145.221 21.0957C145.221 20.3889 145.37 19.7703 145.668 19.2402C145.965 18.7007 146.379 18.2821 146.909 17.9845C147.449 17.6775 148.072 17.5241 148.779 17.5241C149.486 17.5241 150.104 17.6775 150.635 17.9845C151.174 18.2821 151.593 18.7007 151.89 19.2402C152.188 19.7703 152.337 20.3889 152.337 21.0957C152.337 21.8026 152.188 22.4258 151.89 22.9653C151.593 23.4955 151.174 23.914 150.635 24.221C150.104 24.5186 149.486 24.6674 148.779 24.6674ZM148.779 22.8955C149.281 22.8955 149.69 22.7281 150.007 22.3933C150.323 22.0584 150.481 21.6259 150.481 21.0957C150.481 20.5563 150.323 20.1191 150.007 19.7843C149.69 19.4494 149.281 19.282 148.779 19.282C148.277 19.282 147.867 19.4494 147.551 19.7843C147.244 20.1098 147.091 20.5423 147.091 21.0818C147.091 21.6213 147.244 22.0584 147.551 22.3933C147.867 22.7281 148.277 22.8955 148.779 22.8955ZM156.576 24.6256C155.878 24.6256 155.325 24.4442 154.915 24.0814C154.515 23.7094 154.315 23.1188 154.315 22.3096V17.7613L154.288 17.6775L154.664 16.0731H156.143V22.0166C156.143 22.3142 156.213 22.5328 156.352 22.6723C156.501 22.8025 156.687 22.8676 156.91 22.8676C157.059 22.8676 157.194 22.8583 157.315 22.8397C157.436 22.8118 157.543 22.7839 157.636 22.756V24.4581C157.487 24.514 157.329 24.5558 157.162 24.5837C156.994 24.6116 156.799 24.6256 156.576 24.6256ZM153.255 19.3657V17.6775H157.636V19.3657H153.255ZM161.513 24.6953C161.011 24.6953 160.569 24.6023 160.188 24.4163C159.806 24.221 159.513 23.9512 159.309 23.6071C159.104 23.2536 159.002 22.8444 159.002 22.3793C159.002 21.9143 159.109 21.5097 159.323 21.1655C159.546 20.8214 159.848 20.5563 160.229 20.3703C160.611 20.1749 161.043 20.0773 161.527 20.0773C162.187 20.0773 162.722 20.2307 163.131 20.5377C163.55 20.8353 163.834 21.2632 163.982 21.8212L163.131 21.7096V20.0633C163.131 19.8029 163.038 19.5703 162.852 19.3657C162.666 19.1611 162.364 19.0588 161.945 19.0588C161.685 19.0588 161.397 19.0913 161.08 19.1564C160.764 19.2122 160.434 19.3239 160.09 19.4913L159.546 18.1519C159.946 17.9566 160.369 17.8031 160.815 17.6915C161.271 17.5799 161.727 17.5241 162.183 17.5241C162.806 17.5241 163.322 17.6357 163.731 17.8589C164.141 18.0822 164.447 18.3891 164.652 18.7797C164.857 19.1704 164.959 19.6169 164.959 20.1191V24.5H163.508L163.117 23.2025L163.982 22.9513C163.824 23.5001 163.531 23.928 163.103 24.2349C162.685 24.5419 162.155 24.6953 161.513 24.6953ZM162.015 23.3001C162.35 23.3001 162.62 23.2164 162.824 23.049C163.029 22.8816 163.131 22.6584 163.131 22.3793C163.131 22.091 163.029 21.8678 162.824 21.7096C162.62 21.5422 162.35 21.4585 162.015 21.4585C161.68 21.4585 161.411 21.5422 161.206 21.7096C161.001 21.8678 160.899 22.091 160.899 22.3793C160.899 22.6584 161.001 22.8816 161.206 23.049C161.411 23.2164 161.68 23.3001 162.015 23.3001ZM169.2 24.6814C168.68 24.6814 168.182 24.5744 167.708 24.3605C167.243 24.1466 166.829 23.7745 166.466 23.2443L167.582 22.2677C167.88 22.6025 168.163 22.8444 168.433 22.9932C168.712 23.1327 169.024 23.2025 169.368 23.2025C169.6 23.2025 169.786 23.1467 169.926 23.0351C170.065 22.9234 170.135 22.7839 170.135 22.6165C170.135 22.5049 170.098 22.4072 170.024 22.3235C169.949 22.2305 169.81 22.1421 169.605 22.0584C169.41 21.9747 169.121 21.8864 168.74 21.7933C168.033 21.6073 167.503 21.3562 167.149 21.0399C166.796 20.7144 166.619 20.2586 166.619 19.6727C166.619 19.2727 166.722 18.91 166.926 18.5844C167.131 18.2496 167.424 17.9845 167.805 17.7892C168.196 17.5938 168.656 17.4962 169.186 17.4962C169.81 17.4962 170.34 17.6171 170.777 17.8589C171.223 18.1008 171.582 18.3937 171.851 18.7379L170.665 19.7285C170.489 19.5424 170.261 19.3797 169.982 19.2402C169.703 19.1006 169.377 19.0309 169.005 19.0309C168.8 19.0309 168.619 19.0774 168.461 19.1704C168.303 19.2634 168.224 19.3983 168.224 19.575C168.224 19.7424 168.307 19.8819 168.475 19.9936C168.652 20.1052 168.986 20.2214 169.479 20.3423C170.317 20.5377 170.916 20.8028 171.279 21.1376C171.642 21.4724 171.823 21.9189 171.823 22.477C171.823 22.9234 171.707 23.3141 171.475 23.6489C171.242 23.9745 170.926 24.2303 170.526 24.4163C170.135 24.593 169.693 24.6814 169.2 24.6814Z" fill="#333333"/>
</svg>
