<svg width="184" height="40" viewBox="0 0 184 40" fill="none" xmlns="http://www.w3.org/2000/svg">
<circle cx="19.6378" cy="19.6378" r="19.6378" fill="#FFD008"/>
<path d="M12.7645 28.1795C12.4209 28.3725 12.042 28.4947 11.6503 28.5387C11.8071 28.6827 11.9978 28.7846 12.2045 28.835L11.3923 29.3357C11.4982 29.2565 11.6201 29.2013 11.7494 29.1739C11.8788 29.1465 12.0126 29.1476 12.1415 29.1771C11.7935 29.3765 11.4929 29.6491 11.2604 29.9759C11.5086 29.9583 11.7528 29.9036 11.9848 29.8135L11.8204 30.7136C11.9549 30.48 12.154 30.2902 12.3937 30.167C12.3456 30.6587 12.352 31.1541 12.4128 31.6443L12.7148 30.7538C12.7883 31.0364 12.8928 31.3101 13.0263 31.5698C13.0283 31.4687 13.0524 31.3692 13.097 31.2784C13.1416 31.1876 13.2055 31.1077 13.2843 31.0442C13.3498 31.3596 13.3951 31.6787 13.42 31.9998C13.5647 31.7055 13.7699 31.445 14.022 31.2354C14.058 31.6048 13.9919 31.9769 13.8309 32.3113C13.9273 32.0691 14.0895 31.8586 14.2991 31.7036C14.3608 31.9535 14.377 32.2124 14.3469 32.468L14.7215 32.0438C14.8655 32.594 14.8909 33.1686 14.796 33.7294L15.1018 32.3515C15.3165 32.6098 15.4723 32.9117 15.5586 33.2363C15.6672 32.9779 15.746 32.708 15.7936 32.4317L16.2275 32.9993C16.362 32.7666 16.4356 32.5037 16.4415 32.2349L16.7263 32.7509C16.8257 32.5196 16.753 32.2578 16.7091 32.0094C16.6651 31.7609 16.6728 31.4647 16.8715 31.3118C17.0552 31.7363 17.1256 32.2012 17.076 32.6611L17.1372 31.6577L17.808 32.642C17.8228 32.2953 17.9114 31.9559 18.0679 31.6463C18.2695 32.1426 18.4325 32.6537 18.5552 33.1752L18.968 32.5043L19.0368 33.3873C19.2159 32.8116 19.4575 32.2572 19.7573 31.7342C19.8004 32.1596 19.7602 32.5893 19.6389 32.9993L20.3632 32.1412C20.4828 32.2552 20.5789 32.3916 20.646 32.5426C20.6883 32.3906 20.6935 32.2307 20.6613 32.0763C20.7416 32.0888 20.8185 32.1176 20.8872 32.161C20.9559 32.2044 21.0149 32.2614 21.0607 32.3285L21.1391 31.8756L21.2461 33.6109L21.9685 32.5043L22.0048 33.2516C22.096 33.0441 22.1603 32.8257 22.196 32.6018L22.4712 33.2822C22.4827 33.0714 22.5226 32.8631 22.5897 32.663L23.2719 33.3701L23.5682 32.921C23.618 33.2219 23.648 33.5258 23.658 33.8307C23.8159 33.4088 24.0397 33.0147 24.3211 32.663C24.4378 33.0575 24.4742 33.4715 24.4282 33.8804L25.0015 32.5846C25.0859 32.8727 25.2291 33.1401 25.422 33.3701C25.4421 33.1187 25.4055 32.8659 25.3149 32.6305C25.5855 32.8146 25.8893 32.9444 26.2093 33.0127C26.1672 32.7296 26.076 32.4561 25.9399 32.2043C26.1096 32.4044 26.3408 32.5428 26.5973 32.598L26.259 31.8527C26.2385 31.8303 26.2245 31.8028 26.2185 31.7731C26.2125 31.7434 26.2148 31.7126 26.225 31.6841C26.2352 31.6555 26.2531 31.6304 26.2766 31.6112C26.3001 31.5921 26.3284 31.5797 26.3584 31.5755L26.8859 31.3481C26.6657 31.3596 26.4482 31.2963 26.2686 31.1685L27.5108 30.5206L26.4807 30.5053L26.9642 29.9014L26.5151 30.2511C26.7765 29.881 26.9922 29.4806 27.1573 29.0586L26.6776 28.9496L27.442 28.877L26.3527 28.0438C26.531 27.9894 26.694 27.8938 26.8286 27.7647C26.7674 27.7557 26.7051 27.76 26.6458 27.7771C26.5864 27.7942 26.5314 27.8239 26.4845 27.8641L26.7425 27.1169C26.5254 27.1735 26.2955 27.1548 26.0903 27.0638C25.8852 26.9729 25.7169 26.8151 25.6131 26.6161L25.8443 26.3409C24.7025 26.2106 23.5531 26.1601 22.4043 26.19L16.518 26.2072L12.7645 28.1795Z" fill="#E5E4E4"/>
<path d="M14.838 25.2954L11.9599 10.9619L10.9756 11.153C10.6526 11.0766 10.3354 11.2753 10.0621 11.4626L9.47347 11.8678C9.30538 11.9785 9.14452 12.0998 8.99186 12.2309C8.80842 12.4004 8.63904 12.5844 8.48541 12.7813C8.00651 13.3261 7.57554 13.9111 7.1973 14.53C7.70694 14.014 8.20001 13.4865 8.67652 12.9476C8.89352 12.6751 9.15139 12.4379 9.44098 12.2443C9.58699 12.1481 9.75389 12.0882 9.92776 12.0695C10.1016 12.0509 10.2774 12.0742 10.4405 12.1373C9.85187 12.5195 9.24222 12.9189 8.88675 13.5228C9.2528 13.1989 9.68723 12.9618 10.1577 12.8291C9.1572 13.3399 8.30493 14.0993 7.68273 15.0345L8.25607 14.7632C7.88121 14.9256 7.55654 15.1852 7.31563 15.5151C7.07473 15.8451 6.92633 16.2334 6.88579 16.6399L7.42855 16.3399L6.66409 17.6088C6.46151 17.9414 6.26084 18.3733 6.47298 18.6906C6.93238 18.3402 7.24887 17.8349 7.36357 17.2687C7.50308 17.9834 6.74436 18.6542 6.89916 19.3709C7.07939 19.1976 7.20439 18.9748 7.25846 18.7307L7.06734 19.0881C6.8315 19.4303 6.67747 19.8222 6.61716 20.2334C6.55685 20.6447 6.59187 21.0642 6.71952 21.4598C6.96267 21.0529 7.0822 20.5841 7.06352 20.1105C7.04629 19.9779 7.04629 19.8437 7.06352 19.7111C7.07444 19.6454 7.10295 19.5839 7.14602 19.5331C7.18909 19.4822 7.24511 19.4441 7.30815 19.4225C7.0982 20.3479 6.97725 21.2912 6.94694 22.2395C7.1629 22.0694 7.22023 21.7713 7.26037 21.498C7.12237 21.7378 7.04705 22.0085 7.04137 22.2851C7.03569 22.5617 7.09984 22.8352 7.22788 23.0804L7.34446 22.5319C7.38332 22.7551 7.38332 22.9834 7.34446 23.2066C7.27375 23.4111 7.18392 23.6404 7.24317 23.8143C7.30241 23.9882 7.58717 23.1875 7.58717 23.1875C7.54527 23.6858 7.60044 24.1875 7.74962 24.6648C7.84535 24.4849 7.88653 24.281 7.86811 24.0781C7.85148 24.7913 8.04129 25.4941 8.4147 26.1019C8.43794 25.7907 8.40095 25.478 8.30576 25.1808C8.5828 25.7397 8.76432 26.3411 8.84279 26.9601C8.93013 26.768 8.97532 26.5595 8.97532 26.3485C8.97532 26.1375 8.93013 25.929 8.84279 25.7369C8.77399 25.5821 8.67461 25.412 8.73768 25.2553L9.0511 26.4421C9.102 26.682 9.18627 26.9136 9.30146 27.1301C9.36027 27.2379 9.4407 27.3325 9.5377 27.4078C9.63471 27.4831 9.74622 27.5376 9.86525 27.5678C9.8666 26.9167 9.72435 26.2733 9.44862 25.6834C9.33013 26.1421 9.76778 26.5339 9.95125 26.9696C10.1213 27.3671 10.0908 27.8564 10.3755 28.1794C10.3705 27.8893 10.3443 27.5999 10.2972 27.3136C10.5161 27.6853 10.7157 28.0681 10.8954 28.4603C10.9697 28.3298 11.0336 28.1937 11.0865 28.0532L11.1228 28.6266C11.1228 28.6266 11.4094 27.799 11.4228 27.8392C11.4362 27.8793 11.3139 28.8234 11.3808 28.7279C11.4698 28.5735 11.5508 28.4147 11.6235 28.252C11.6602 28.3405 11.7091 28.4235 11.7687 28.4985C11.818 28.4211 11.8584 28.3384 11.8891 28.252C11.9581 28.4162 11.9747 28.5977 11.9369 28.7718L12.2599 28.3666L12.3727 28.8043L12.495 28.3647C12.5408 28.5406 12.5963 28.7145 12.6593 28.8846C12.6899 28.747 12.7224 28.6094 12.7549 28.4737L13.1218 29.1598C13.1048 28.8743 13.1505 28.5886 13.2556 28.3227C13.2844 28.4398 13.3393 28.5489 13.4161 28.6418C13.5006 28.4184 13.6235 28.2114 13.7793 28.0303C13.8671 28.1162 13.9441 28.2124 14.0086 28.317L14.1997 27.973L14.3488 28.2787L14.5819 27.7054L14.6431 27.8965L14.838 25.2954Z" fill="#16191E"/>
<path d="M31.7096 16.8424C32.1114 16.9199 32.468 17.1491 32.7053 17.4826C32.5048 17.2924 32.2492 17.1706 31.9752 17.1348C32.2863 17.3443 32.5289 17.6407 32.6728 17.9871C32.4249 17.9132 32.2025 17.7715 32.0306 17.5781C32.0708 18.1381 32.9862 18.3044 33.0263 18.8643C33.0263 18.9331 33.0091 19.0153 32.9461 19.0383C32.9189 19.0431 32.891 19.0421 32.8643 19.0352C32.8375 19.0282 32.8126 19.0156 32.7913 18.9981C32.536 18.8358 32.3147 18.6255 32.1396 18.3789C32.4218 18.7673 32.6245 19.2077 32.7358 19.6747C32.5664 19.5488 32.409 19.4074 32.2657 19.2523C32.4488 19.5011 32.5931 19.7763 32.6938 20.0684C32.7437 20.2145 32.7603 20.37 32.7424 20.5234C32.7246 20.6768 32.6727 20.8243 32.5906 20.9551C32.5986 20.7957 32.5681 20.6367 32.5015 20.4917C32.435 20.3466 32.3344 20.2198 32.2084 20.1219C32.4969 20.3856 32.4893 20.8347 32.4606 21.2246L32.3211 23.1357L32.0918 21.538C32.0364 21.1558 31.9733 20.7525 31.7325 20.4487C31.9374 21.6584 32.0015 22.8878 31.9236 24.1123C31.7994 23.6938 31.6732 23.2752 31.5414 22.8567C31.6099 23.6428 31.4308 24.4307 31.0292 25.1099L31.012 24.5366C30.8538 25.0973 30.6446 25.6423 30.387 26.1649L30.5113 25.3756L29.9207 27.0173C29.788 26.8348 29.7056 26.6205 29.6818 26.3961C29.5462 26.7 29.4356 27.0145 29.3512 27.3364C29.2669 27.2863 29.2004 27.2111 29.161 27.1213C29.1216 27.0315 29.1113 26.9317 29.1314 26.8357C29.1433 26.9362 29.1309 27.0381 29.0953 27.1329C29.0597 27.2276 29.002 27.3125 28.9269 27.3804C28.79 27.2832 28.6913 27.1412 28.6479 26.979L28.5887 27.453L28.0344 26.7898C27.922 26.959 27.8689 27.1606 27.8835 27.3632L27.5815 26.9809C27.5945 27.0965 27.5843 27.2135 27.5515 27.3251C27.5187 27.4367 27.4639 27.5406 27.3904 27.6307L27.0387 27.1988C27.0251 27.276 26.9908 27.348 26.9394 27.4071C26.9062 27.3936 26.8762 27.3734 26.8512 27.3478C26.8262 27.3221 26.8067 27.2916 26.7941 27.2581L25.9513 25.7292L26.5705 12.5003L28.1109 11.7874C28.1797 11.7371 28.2627 11.71 28.3479 11.71C28.4331 11.71 28.5161 11.7371 28.5848 11.7874C28.6382 11.8432 28.6978 11.8926 28.7626 11.9346C28.9002 11.9957 29.0779 11.9059 29.2041 11.9862C29.3302 12.0664 29.334 12.2518 29.4544 12.3283C29.5748 12.4047 29.7009 12.3397 29.8271 12.3283C30.194 12.3015 30.4616 12.6608 30.6489 12.978C30.6749 13.0367 30.721 13.0841 30.7788 13.1118C30.9241 13.1615 31.0292 12.9704 31.1611 12.9112C31.377 12.8213 31.5796 13.0621 31.6771 13.2743C31.7745 13.4864 31.9121 13.7463 32.1453 13.731C31.9491 13.7183 31.7575 13.6662 31.5818 13.5779C31.4062 13.4896 31.2501 13.3668 31.1228 13.2169C31.0559 13.3067 30.958 13.3683 30.8481 13.3898C30.7383 13.4114 30.6243 13.3913 30.5285 13.3335C30.3413 13.2116 30.1854 13.0472 30.0736 12.8538C30.029 12.7727 29.9573 12.7098 29.871 12.6761C29.7067 12.6379 29.5805 12.806 29.4582 12.9226C29.3359 13.0392 29.076 13.066 29.055 12.8997C29.3607 13.0556 29.6463 13.2481 29.9054 13.473C29.9428 13.4306 29.9891 13.3971 30.0411 13.3748C30.093 13.3524 30.1492 13.3419 30.2057 13.3439C30.2622 13.3459 30.3175 13.3604 30.3677 13.3864C30.4179 13.4123 30.4617 13.4491 30.496 13.494C30.5686 13.6106 30.5915 13.7807 30.7196 13.8189C30.8094 13.8457 30.9011 13.7903 30.9929 13.7769C31.4114 13.71 31.5853 14.4171 32.0058 14.4477C31.5437 14.2346 31.0429 14.1182 30.5342 14.1056C30.4873 14.1121 30.4396 14.1079 30.3946 14.0934C30.3496 14.0788 30.3085 14.0542 30.2743 14.0215C30.2342 13.968 30.2361 13.8916 30.2036 13.8304C30.1711 13.7693 30.0679 13.7444 30.0469 13.8094C30.5572 14.1998 31.0255 14.6423 31.4439 15.13C31.077 14.8548 30.6794 14.5681 30.217 14.5566C30.6272 14.9503 31.0286 15.3529 31.421 15.7645C31.3112 15.7839 31.1987 15.7807 31.0902 15.7551C30.9818 15.7294 30.8797 15.6819 30.7903 15.6154C31.0675 15.9779 31.3743 16.3167 31.7076 16.6283C31.4036 16.5736 31.1153 16.4529 30.8629 16.2747" fill="#16191E"/>
<path d="M15.8126 27.1032C15.7912 27.7063 15.9524 28.3018 16.2751 28.8117C16.2501 28.4641 16.1912 28.1197 16.0992 27.7835C16.1303 28.0436 16.2156 28.2943 16.3496 28.5193L16.4127 28.0281C16.5193 28.1734 16.6133 28.3275 16.6936 28.4887L16.8446 28.0014L17.0739 28.5938L17.1255 27.9957C17.2427 28.2811 17.4269 28.5341 17.6625 28.7334C17.6451 28.6036 17.6016 28.4788 17.5345 28.3664L18.0792 28.8939L18.0142 28.2326C18.0839 28.4157 18.2006 28.5772 18.3525 28.7009L18.385 28.2766L18.6621 29.1576C18.7576 28.8557 18.8672 28.5582 18.9908 28.2651L19.0462 28.9703L19.1895 28.3722L19.2431 28.848L19.6024 28.3091C19.6784 28.5157 19.7328 28.7296 19.7648 28.9474C19.8186 28.8074 19.8427 28.6577 19.8355 28.5078C19.9118 28.6932 20.0148 28.8664 20.1413 29.0219C20.1829 28.8337 20.2021 28.6413 20.1986 28.4486C20.2719 28.6553 20.3687 28.8528 20.4872 29.0372C20.5004 28.8185 20.5272 28.6009 20.5675 28.3855L21.1599 29.2379L21.223 28.7372C21.2576 28.8026 21.3146 28.8535 21.3835 28.8805L21.3606 28.4677L21.8594 28.7945C21.8853 28.7395 21.8987 28.6795 21.8987 28.6187C21.8987 28.5579 21.8853 28.4979 21.8594 28.4429C22.0159 28.6228 22.2276 28.7458 22.4614 28.7926C22.4783 28.6828 22.4699 28.5707 22.4367 28.4647C22.4036 28.3587 22.3467 28.2617 22.2703 28.181C22.4872 28.3424 22.7303 28.4652 22.9889 28.5442C22.9796 28.4686 22.9549 28.3957 22.9165 28.33C22.878 28.2643 22.8266 28.2071 22.7653 28.1619C22.9479 28.2486 23.1519 28.2798 23.352 28.2517C23.2306 28.1126 23.0969 27.9847 22.9526 27.8695C23.1702 27.9564 23.4052 27.9911 23.6387 27.9708L23.4361 27.7434L23.9024 27.8256L23.9445 27.5274C23.9955 27.6439 24.0597 27.7541 24.1356 27.8562C24.2228 27.7234 24.2958 27.5818 24.3534 27.4338L24.5044 27.6822C24.6374 27.4093 24.703 27.1085 24.6955 26.805L24.8083 25.0754C24.8145 25.0462 24.8147 25.0161 24.8088 24.9868C24.8028 24.9576 24.791 24.9298 24.7739 24.9054C24.7378 24.8734 24.692 24.8545 24.6439 24.8518C23.8735 24.7037 23.0862 24.6639 22.3047 24.7334C21.7084 24.7964 21.1255 24.9474 20.5331 25.0353C18.922 25.2799 17.2402 25.0774 15.6826 25.5571C15.6474 25.5627 15.6158 25.5819 15.5947 25.6106C15.5831 25.642 15.5831 25.6766 15.5947 25.708L15.6864 26.1036L15.8126 27.1032Z" fill="#D1D0D1"/>
<path d="M11.6215 10.6388L11.4037 10.0043C11.4243 10.1769 11.4962 10.3393 11.6101 10.4706L11.7591 9.82275C11.7585 9.9056 11.7751 9.98767 11.808 10.0637C11.8409 10.1397 11.8894 10.208 11.9503 10.2642L12.0038 9.54755C12.0469 9.72967 12.1262 9.90125 12.2369 10.0521L12.3134 9.18826C12.3909 9.39907 12.5228 9.58565 12.6956 9.72911C12.7583 9.33082 12.7322 8.92359 12.6192 8.53656C12.6883 8.73927 12.8228 8.91334 13.0014 9.03155C12.9113 8.8514 12.8811 8.64714 12.9154 8.44865C13.0584 8.63136 13.2548 8.76497 13.4773 8.83087C13.4565 8.59015 13.3779 8.35803 13.2479 8.15433C13.3822 8.32842 13.5682 8.45553 13.7792 8.51746L13.7104 7.77211C13.8985 7.98551 14.1094 8.17776 14.3392 8.34545L14.2876 7.63068C14.377 7.83402 14.4954 8.02329 14.6392 8.19256L14.6889 7.88104L14.88 8.0282L14.903 7.5313L15.1954 7.69376C15.1741 7.3866 15.0719 7.09053 14.8991 6.83565C15.103 7.00322 15.3354 7.13269 15.5852 7.21787L15.3941 6.33684L15.7458 6.78023L16.0802 6.2432L16.2274 6.76876C16.2266 6.60225 16.2879 6.44143 16.3994 6.31773C16.3945 6.4109 16.418 6.50337 16.4668 6.58288C16.5156 6.6624 16.5874 6.72521 16.6727 6.76302C16.6631 6.4659 16.6901 6.16873 16.7529 5.87818L17.0568 6.53942L17.3492 5.96608L17.4467 6.45152L17.7582 6.16485L17.8002 6.50502L18.3411 5.40039L18.3659 6.18778L18.8647 5.6947L18.8227 6.49547C18.8899 6.25069 19.0121 6.0245 19.1801 5.83421C19.1789 5.98572 19.2062 6.13611 19.2604 6.2776L19.4782 6.01386L19.6693 6.30627L19.9961 5.44243L19.9617 6.398C20.1976 6.26793 20.408 6.09636 20.5829 5.89154V6.41329C20.6921 6.26446 20.8207 6.13079 20.9651 6.01577L20.6784 6.58911L21.2518 6.16675L21.0377 6.74009C21.3411 6.51957 21.6004 6.24405 21.8022 5.92785C21.7586 6.1799 21.6761 6.42363 21.5575 6.65027C21.8268 6.65756 22.0941 6.60331 22.3392 6.49164C22.1697 6.5339 22.015 6.62182 21.892 6.74583L22.4883 6.6216C22.3526 6.76321 22.196 6.88312 22.0239 6.97708L22.5972 6.90445C22.5078 6.96637 22.4407 7.05551 22.4061 7.15863C22.3832 7.26374 22.4615 7.3937 22.5685 7.38033C22.6056 7.37389 22.6405 7.35811 22.6698 7.33446L23.4343 6.82992C23.3528 7.13634 23.1695 7.40593 22.9144 7.59437L24.1777 7.07454C23.9357 7.19389 23.7401 7.39016 23.6216 7.6326L24.4472 7.48926L23.8949 7.96322L24.6478 7.89824C24.5238 8.03664 24.3771 8.15297 24.214 8.24225L25.4543 8.26136L24.7759 8.68564L25.4238 8.53656L24.9422 8.80794C25.0127 8.78237 25.0882 8.77288 25.1629 8.78016C25.2376 8.78743 25.3098 8.81129 25.3741 8.84999C25.4887 8.94555 25.4257 9.19591 25.2785 9.16151L26.9164 9.51315L25.806 9.85715L26.4768 9.88582L26.2035 10.1591C26.2789 10.1493 26.3553 10.167 26.4187 10.209C26.482 10.251 26.5281 10.3146 26.5483 10.3878C26.5686 10.4611 26.5617 10.5393 26.5288 10.6079C26.496 10.6765 26.4395 10.7309 26.3698 10.7611C26.626 10.7454 26.8752 10.6709 27.0979 10.5433L26.4061 10.9599L27.0884 11.0153L26.5341 11.4549L27.2986 11.5371C27.069 11.62 26.8774 11.7837 26.7597 11.9976C27.0912 12.048 27.4287 12.0447 27.7592 11.9881C27.691 12.123 27.5968 12.2432 27.482 12.3416C27.3672 12.4399 27.2341 12.5147 27.0903 12.5614H28.1739C27.9946 12.7672 27.7657 12.9238 27.5088 13.0163L28.0955 13.1711C27.9368 13.3649 27.7173 13.4996 27.4725 13.5533L28.237 13.5781C28.0967 13.7289 27.9185 13.8392 27.721 13.8973C28.0592 13.9982 28.4059 14.0679 28.7568 14.1056C28.4155 14.3368 28.0293 14.4937 27.6235 14.5662L28.2542 14.5242L27.8471 14.8013C27.9862 14.8383 28.1163 14.9033 28.2293 14.9924C28.1122 15.0886 27.9692 15.1477 27.8184 15.1625C27.8184 15.1625 27.893 15.2752 27.9216 15.2752C27.9503 15.2752 28.4548 15.2332 28.4739 15.2485C28.4931 15.2638 28.0707 15.5141 28.0917 15.5218C28.1127 15.5294 28.5083 15.904 28.365 15.904C28.2217 15.904 27.8031 15.6995 27.7802 15.7282C27.6178 15.9193 28.063 16.1563 28.3077 16.2117C28.1094 16.237 27.9266 16.3318 27.7917 16.4792L28.5083 16.6704L28.2561 16.9876L27.6445 17.538C27.7996 17.4824 27.9685 17.4784 28.1261 17.5265L27.4897 17.819C27.7977 17.8301 28.0988 17.9133 28.3688 18.0617C27.9228 18.1957 27.4877 18.3637 27.0674 18.5643H27.8318L27.3349 18.9179C27.6077 18.7991 27.9093 18.7626 28.2026 18.8128C28.1528 18.9242 28.0804 19.0241 27.9899 19.106C27.8994 19.1879 27.7928 19.2501 27.677 19.2886C27.7585 19.3091 27.8344 19.3472 27.8995 19.4003C27.9646 19.4534 28.0172 19.5201 28.0537 19.5957C28.0902 19.6714 28.1096 19.7542 28.1105 19.8381C28.1115 19.9221 28.094 20.0053 28.0592 20.0817C27.9181 19.8791 27.7179 19.7249 27.4859 19.6403C27.6692 19.7561 27.7997 19.9394 27.849 20.1505C27.7603 20.1821 27.665 20.1903 27.5723 20.1742C27.4795 20.1581 27.3925 20.1184 27.3196 20.0588C27.5656 20.2055 27.767 20.4162 27.9025 20.6685C27.7598 20.723 27.6019 20.723 27.4591 20.6685C27.8527 20.926 28.1576 21.2983 28.3325 21.7349L27.4993 21.5705C27.7108 21.6641 27.8787 21.8348 27.9689 22.0478C28.0591 22.2608 28.0647 22.5002 27.9847 22.7172C27.9748 22.8975 27.9493 23.0765 27.9082 23.2523L27.4687 23.1701C27.6133 23.2468 27.7428 23.3492 27.8509 23.4721C27.6106 23.5209 27.363 23.5209 27.1228 23.4721L27.9216 24.1945C27.901 24.2204 27.8734 24.2398 27.8421 24.2504C27.8108 24.261 27.7771 24.2623 27.745 24.2542C27.713 24.2462 27.6839 24.229 27.6614 24.2049C27.6388 24.1807 27.6236 24.1506 27.6178 24.1181C27.7024 24.2095 27.7582 24.3238 27.7783 24.4468L27.3177 24.5156L28.3172 24.8443C27.7437 24.9676 27.1558 25.0107 26.5705 24.9723L27.6636 25.2475C27.1716 25.2345 26.6808 25.1917 26.194 25.1195C26.6759 25.5776 27.3141 25.8352 27.979 25.84C27.822 25.9411 27.6396 25.9957 27.4529 25.9974C27.2662 25.9991 27.0828 25.9478 26.924 25.8496C27.0451 26.0036 27.1942 26.1333 27.3636 26.2318C27.2209 26.2589 27.0737 26.2482 26.9365 26.2005C26.7993 26.1529 26.6771 26.0701 26.5819 25.9604C26.7606 26.2345 26.9044 26.5299 27.01 26.8395C26.6813 26.7093 26.3908 26.4983 26.1653 26.2261C26.2495 26.3951 26.2665 26.5896 26.2131 26.7707C26.1589 26.7704 26.1057 26.756 26.0587 26.7289C26.0118 26.7017 25.9728 26.6628 25.9455 26.6159C25.9957 26.6934 26.0296 26.7803 26.045 26.8714C26.0605 26.9624 26.0572 27.0556 26.0353 27.1453C25.7867 27.0312 25.5583 26.8776 25.3588 26.6905L25.7601 27.5122C25.5972 27.5141 25.4391 27.4572 25.3148 27.3519C25.1905 27.2465 25.1084 27.0999 25.0836 26.9389L24.9575 27.4434L24.6822 26.9293L24.1796 27.7416L23.9885 27.4301C23.8815 27.6728 23.6388 27.9652 23.4152 27.8218L22.8648 28.1391C22.7424 28.0512 22.5781 28.1391 22.4367 28.1888C22.2952 28.2385 22.0716 28.1754 22.1022 28.0283L21.6703 28.4965L21.4142 28.1735C21.3822 28.1988 21.3443 28.2155 21.304 28.222C21.2637 28.2285 21.2224 28.2245 21.1841 28.2105C21.1458 28.1965 21.1117 28.173 21.0851 28.1421C21.0584 28.1112 21.0402 28.074 21.032 28.034L20.5637 28.6073C20.4962 28.5168 20.4073 28.4444 20.3049 28.3967C20.2025 28.349 20.0898 28.3275 19.977 28.334L19.7859 28.5443C19.6649 28.4458 19.5682 28.321 19.5031 28.1792L19.2718 28.4774L19.0157 28.162C18.9792 28.1972 18.936 28.2247 18.8887 28.243C18.8414 28.2612 18.7909 28.2699 18.7402 28.2685C18.6895 28.2671 18.6396 28.2556 18.5934 28.2347C18.5472 28.2138 18.5056 28.1839 18.4711 28.1467L18.1958 28.3799C18.191 28.1906 18.1446 28.0047 18.0602 27.8352C18.0462 27.92 18.0058 27.9982 17.9447 28.0587C17.8836 28.1191 17.8049 28.1586 17.72 28.1716L17.6703 27.3479C17.6732 27.3779 17.6679 27.4082 17.655 27.4355C17.6421 27.4627 17.6219 27.4859 17.5968 27.5026C17.5717 27.5193 17.5424 27.5289 17.5123 27.5302C17.4821 27.5316 17.4522 27.5247 17.4257 27.5103L17.5709 26.7574C17.4492 27.0852 17.2529 27.3803 16.9976 27.6193C17.0264 27.217 17.0962 26.8187 17.2059 26.4305C17.0359 26.9034 16.7446 27.3232 16.3612 27.6479C16.3939 27.2107 16.4925 26.781 16.6536 26.3732C16.519 26.7404 16.3181 27.0799 16.0611 27.3746L16.0076 26.4669L15.7324 27.6135C15.6383 27.0909 15.7403 26.5519 16.0191 26.0999C15.9563 26.6159 15.7779 27.111 15.4973 27.5486L15.3788 25.97L14.8246 27.4263C14.5836 27.0037 14.5022 26.5086 14.5953 26.0311C14.4667 26.3623 14.3807 26.7084 14.3392 27.0612C14.2799 26.5829 14.3236 26.0975 14.4672 25.6374C14.4337 25.9669 14.3245 26.2841 14.1481 26.5643C13.9995 26.0353 14.0062 25.4748 14.1672 24.9494C14.1667 25.2856 14.0429 25.6099 13.8193 25.861C13.7062 25.5829 13.6609 25.2819 13.6872 24.9828C13.7134 24.6837 13.8105 24.3952 13.9703 24.141C13.9179 24.4352 13.7803 24.7077 13.5747 24.9246C13.5273 24.5187 13.5132 24.1096 13.5327 23.7014L13.1676 24.162L13.0893 23.1873L12.5389 23.6804L12.5026 22.6388C12.5752 22.7019 12.4204 22.8013 12.3497 22.7344C12.279 22.6675 12.2866 22.5586 12.2618 22.4668C12.2369 22.3751 12.1184 22.2872 12.0515 22.3579L12.2981 21.6947C12.2486 21.784 12.1717 21.8548 12.0787 21.8969C11.9858 21.9389 11.8817 21.9497 11.7821 21.9279C11.9221 21.6699 11.9882 21.3783 11.9732 21.0851C11.9288 21.0584 11.8902 21.0232 11.8595 20.9815C11.8289 20.9398 11.8067 20.8924 11.7945 20.8422C11.7822 20.7919 11.78 20.7396 11.7881 20.6885C11.7961 20.6374 11.8142 20.5883 11.8413 20.5442L11.417 20.6264L11.5011 20.3015L11.1973 20.334C11.191 20.2659 11.1666 20.2007 11.1266 20.1453C11.0866 20.0898 11.0325 20.0461 10.9698 20.0187C11.1992 19.6778 11.2843 19.2601 11.2068 18.8567L10.924 18.7191C10.9708 18.6347 11.0339 18.5605 11.1097 18.5007C11.1855 18.441 11.2724 18.397 11.3654 18.3713L11.0902 18.2662L11.2814 17.8266L11.1743 16.8366L11.3826 16.4315C11.2641 16.452 11.1423 16.4415 11.0291 16.4009L11.7152 15.1338L11.0367 15.7454C11.0942 15.3713 11.2303 15.0137 11.4362 14.6962C11.3837 14.7994 11.3001 14.8836 11.1973 14.9367C11.0944 14.9899 10.9774 15.0094 10.8628 14.9924C10.9418 14.8868 10.9971 14.7653 11.0248 14.6363C11.0525 14.5073 11.052 14.3739 11.0234 14.2451L11.1877 13.8075L10.8953 13.7387L11.1915 13.4711L10.8743 13.366L11.1113 13.1233C10.903 13.2208 10.7443 12.8443 10.9087 12.6799C11.073 12.5155 11.3368 12.5385 11.5642 12.571L11.031 12.3264C11.1611 12.1366 11.3298 11.9764 11.526 11.8562C11.4489 11.9508 11.3483 12.0234 11.2342 12.0667C11.1201 12.11 10.9966 12.1224 10.8762 12.1027C11.0234 11.7427 11.2441 11.4172 11.5241 11.1472L11.1055 10.5509C11.1055 10.5509 11.6521 10.9541 11.5967 10.8509C11.5413 10.7477 11.2145 10.0024 11.2145 10.0024L11.6215 10.6388Z" fill="white"/>
<path d="M25.5232 16.0205L26.2705 15.4471C25.989 15.4819 25.71 15.5349 25.4353 15.6058C25.6716 15.2719 25.9356 14.9587 26.2246 14.6693C25.8281 14.8724 25.445 15.101 25.0779 15.3535C25.0489 14.9348 25.0611 14.5142 25.1142 14.0979L24.8065 14.6445C24.6927 14.2385 24.5077 13.8561 24.26 13.515C24.1875 13.8108 24.151 14.1143 24.151 14.4189C24.0555 14.2017 23.9181 14.0055 23.7466 13.8415C23.575 13.6775 23.3728 13.549 23.1515 13.4634C23.2589 13.813 23.4292 14.1401 23.6541 14.4285C23.19 14.2526 22.7357 14.0517 22.2934 13.8265C22.3779 14.2155 22.5964 14.5625 22.9107 14.8069C22.5017 14.7801 22.0946 14.7343 21.6895 14.6693C21.8573 14.8686 22.0633 15.0324 22.2953 15.1509C22.1326 15.0375 21.9516 14.9528 21.7602 14.9005C21.6971 14.8853 21.6092 14.8872 21.5958 14.9502C21.5942 14.9815 21.6045 15.0122 21.6245 15.0362L21.8691 15.4185L21.4506 15.2923C21.4452 15.5554 21.5112 15.8149 21.6417 16.0434L21.5117 16.0262L21.5691 16.311L21.3933 16.2211V16.546L21.0741 16.4467C21.1359 16.7835 21.1156 17.1303 21.0149 17.4576C21.0096 17.4863 20.9986 17.5136 20.9825 17.5379C20.9664 17.5622 20.9456 17.583 20.9212 17.5991C20.8676 17.6192 20.8085 17.6192 20.7549 17.5991C19.656 17.3296 18.4616 17.8915 17.3875 17.5284C17.572 17.4655 17.7659 17.4345 17.9609 17.4366C17.8252 17.3143 17.8634 17.0907 17.9475 16.9283C18.0595 16.7811 18.1331 16.6084 18.1615 16.4256C18.0778 16.4606 18.0022 16.5127 17.9397 16.5785C17.8772 16.6443 17.8291 16.7224 17.7984 16.8079L17.9647 15.8275L17.4124 16.4008C17.413 15.9254 17.3487 15.4522 17.2212 14.9942L16.9804 15.8389C16.8641 15.5517 16.7261 15.2738 16.5676 15.0076L16.5944 15.3439C16.4552 15.2761 16.3265 15.1885 16.2122 15.084C16.2094 15.1161 16.2148 15.1483 16.2279 15.1777C16.2409 15.2071 16.2611 15.2327 16.2867 15.2522L15.6637 14.7782L15.9178 15.2312L15.249 14.9292L15.4095 15.2694C15.2408 15.2367 15.0827 15.1632 14.9489 15.0553C14.9296 15.1784 14.8881 15.2968 14.8266 15.4051C14.738 15.2666 14.6276 15.1434 14.4998 15.0401C14.533 15.2278 14.6336 15.397 14.7826 15.5159L14.1653 15.0534L14.5896 15.7376L14.2227 15.5045C14.3558 15.6499 14.4412 15.8327 14.4673 16.0281C14.3081 15.9815 14.1558 15.914 14.0144 15.8275C14.0373 16.0396 14.0526 16.2536 14.0602 16.4677L13.7831 16.2575C13.9076 16.562 13.9818 16.8847 14.0029 17.213L13.6398 16.9455C13.7852 17.1621 13.8763 17.4105 13.9054 17.6698C13.9133 17.7091 13.9086 17.7499 13.892 17.7864C13.8118 17.9221 13.5901 17.7348 13.4506 17.8036C13.699 17.9488 13.9417 18.1055 14.1749 18.2718C14.0631 18.2621 13.9505 18.2758 13.8443 18.3119C14.0961 18.4708 14.3623 18.6058 14.6393 18.7152L14.1481 18.7649C14.2926 18.8485 14.43 18.9437 14.559 19.0496C14.3992 19.0975 14.2328 19.1201 14.066 19.1165C14.2995 19.1855 14.5442 19.2083 14.7865 19.1834C14.7482 19.2694 14.6412 19.3 14.5686 19.3573C14.496 19.4147 14.4788 19.5695 14.5686 19.5771C14.5977 19.5779 14.6263 19.5699 14.6508 19.5542L15.4917 19.1184C15.4917 19.1184 17.3818 17.924 17.4506 17.924C17.5194 17.924 20.732 17.8552 20.9231 17.8284C21.1335 17.7765 21.3393 17.7074 21.5385 17.622L23.9752 18.4744H24.4243C24.4243 18.4744 24.5772 18.8566 24.5906 18.7496C24.604 18.6426 24.7033 18.2584 24.7033 18.2584C24.7628 18.4359 24.8519 18.602 24.9671 18.7496C24.9516 18.5294 24.9099 18.312 24.8429 18.1017C24.9267 18.1999 25.0351 18.2739 25.1571 18.3162C25.279 18.3586 25.41 18.3676 25.5366 18.3425C25.3981 18.1549 25.2288 17.992 25.0359 17.8609C25.3399 17.8727 25.6443 17.8663 25.9475 17.8418L25.3149 17.6507C25.5442 17.5468 25.7959 17.5021 26.0469 17.5207C25.9046 17.4282 25.7759 17.3163 25.6646 17.1882L26.1577 17.408C26.183 17.4233 26.2112 17.4331 26.2405 17.4368C26.2698 17.4404 26.2996 17.4377 26.3278 17.429C26.3436 17.4177 26.3569 17.4033 26.3668 17.3867C26.3767 17.37 26.383 17.3515 26.3853 17.3322C26.3876 17.313 26.386 17.2935 26.3803 17.2749C26.3747 17.2564 26.3653 17.2392 26.3527 17.2245C26.3015 17.1688 26.235 17.1296 26.1615 17.1117C26.0285 17.0811 25.9031 17.0238 25.7927 16.9436L26.5266 16.6129C26.3143 16.6098 26.1038 16.6521 25.9093 16.7371C26.0524 16.5482 26.1528 16.3304 26.2036 16.0988L25.8214 16.3568" fill="#C4C4C4"/>
<path d="M22.7005 15.9787C22.6502 15.8161 22.6378 15.6441 22.6642 15.476C22.7203 15.5665 22.7652 15.6634 22.798 15.7646C22.8687 15.6456 22.9599 15.5402 23.0674 15.4531C23.075 15.5685 23.054 15.6841 23.0063 15.7895C23.1697 15.6184 23.3705 15.4875 23.593 15.4072L23.3025 15.864C23.5064 15.7312 23.722 15.6173 23.9466 15.5238C23.8549 15.627 23.7494 15.717 23.6331 15.7914C23.8654 15.7617 24.1004 15.7617 24.3326 15.7914C24.2816 15.8541 24.216 15.9033 24.1415 15.9347C24.3973 15.9164 24.6537 15.9603 24.8888 16.0627C24.7487 16.1429 24.5895 16.1832 24.4282 16.1793L24.755 16.3399C24.6777 16.3703 24.5953 16.3859 24.5123 16.3857C24.6121 16.4755 24.6742 16.5998 24.6862 16.7336C24.6509 16.7242 24.6191 16.705 24.5944 16.6781C24.6358 16.8286 24.6487 16.9854 24.6327 17.1406C24.6078 17.1343 24.5851 17.1217 24.5667 17.1039C24.5482 17.0862 24.5347 17.0639 24.5276 17.0393C24.5195 17.2004 24.4651 17.3557 24.3708 17.4865L24.302 17.2228C24.2638 17.3979 24.2068 17.5683 24.1319 17.7312C24.1011 17.7038 24.0764 17.6702 24.0593 17.6327C24.0421 17.5952 24.0331 17.5545 24.0326 17.5133C23.9276 17.635 23.7838 17.7167 23.6255 17.7445L23.7516 17.6337L23.207 17.6987C23.1975 17.7019 23.1874 17.7026 23.1777 17.7006C23.1679 17.6985 23.1589 17.6939 23.1515 17.6872C23.1343 17.6605 23.1687 17.6299 23.1993 17.6261C23.2299 17.6222 23.2643 17.6261 23.2872 17.6108C23.3102 17.5955 23.2394 17.5649 23.2031 17.563H22.7731L22.9241 17.5114C22.9353 17.508 22.9453 17.5013 22.9528 17.4923C22.97 17.4693 22.9432 17.4388 22.9203 17.4216C22.8089 17.3396 22.6928 17.2643 22.5725 17.196C22.6049 17.196 22.6069 17.1464 22.5973 17.1158C22.5479 16.9573 22.4737 16.8077 22.3775 16.6724L22.4903 16.6858L22.2132 16.1679L22.324 16.2175C22.3361 16.1514 22.3348 16.0836 22.3204 16.018C22.3059 15.9524 22.2786 15.8903 22.2399 15.8353C22.3287 15.8849 22.4083 15.9496 22.475 16.0264L22.3489 15.5066L22.7005 15.9787Z" fill="#16191E"/>
<path d="M23.5604 17.5382C24.0375 17.5382 24.4243 17.1515 24.4243 16.6744C24.4243 16.1973 24.0375 15.8105 23.5604 15.8105C23.0833 15.8105 22.6966 16.1973 22.6966 16.6744C22.6966 17.1515 23.0833 17.5382 23.5604 17.5382Z" fill="white"/>
<path d="M23.4265 17.303C23.8287 17.303 24.1547 16.977 24.1547 16.5748C24.1547 16.1727 23.8287 15.8467 23.4265 15.8467C23.0244 15.8467 22.6984 16.1727 22.6984 16.5748C22.6984 16.977 23.0244 17.303 23.4265 17.303Z" fill="#2C1C12"/>
<path d="M16.6095 16.7066C16.6597 16.5447 16.6721 16.3734 16.6458 16.2059C16.589 16.2953 16.5441 16.3917 16.512 16.4926C16.4443 16.3738 16.3556 16.2683 16.2502 16.1811C16.2425 16.2959 16.2635 16.4109 16.3114 16.5155C16.1484 16.343 15.9466 16.212 15.7227 16.1333L16.0152 16.5882C15.8109 16.4561 15.5953 16.3422 15.3711 16.248C15.4618 16.3521 15.5674 16.4423 15.6845 16.5155C15.4522 16.4869 15.2173 16.4869 14.985 16.5155C15.0331 16.5765 15.0945 16.6256 15.1647 16.6589C14.9088 16.6415 14.6525 16.6861 14.4174 16.7888C14.5586 16.8679 14.7182 16.9081 14.8799 16.9054L14.5512 17.0659C14.6291 17.0965 14.7122 17.1115 14.7958 17.1099C14.696 17.1997 14.6339 17.324 14.6219 17.4577C14.6572 17.4484 14.689 17.4291 14.7137 17.4023C14.6715 17.5533 14.6585 17.7109 14.6754 17.8667C14.7 17.8593 14.7224 17.846 14.7407 17.828C14.759 17.8101 14.7727 17.7879 14.7806 17.7635C14.7874 17.9248 14.8419 18.0804 14.9373 18.2107L15.0042 17.9489C15.0444 18.1234 15.1013 18.2936 15.1743 18.4572C15.2057 18.4299 15.2311 18.3961 15.2485 18.3582C15.266 18.3203 15.2752 18.2792 15.2755 18.2375C15.3778 18.3606 15.5197 18.4444 15.6769 18.4744L15.5507 18.3617L16.0954 18.4286C16.1145 18.4286 16.1394 18.4286 16.1508 18.4152C16.1623 18.4018 16.1336 18.3579 16.1031 18.354C16.0723 18.3578 16.041 18.3525 16.0132 18.3387C16.0132 18.3024 16.0629 18.2929 16.0992 18.2929H16.5292L16.3783 18.2394C16.3724 18.2383 16.3669 18.236 16.362 18.2327C16.3571 18.2295 16.3528 18.2252 16.3496 18.2203C16.3324 18.1973 16.3496 18.1667 16.3821 18.1495C16.4939 18.0682 16.61 17.9929 16.7299 17.924C16.6974 17.924 16.6955 17.8743 16.7051 17.8438C16.7541 17.6852 16.8283 17.5355 16.9249 17.4004L16.8121 17.4138L17.0892 16.8958L16.9784 16.9455C16.9651 16.8795 16.9657 16.8114 16.9802 16.7456C16.9947 16.6798 17.0227 16.6177 17.0625 16.5633C16.9736 16.6128 16.894 16.6775 16.8274 16.7544L16.9535 16.2346L16.6095 16.7066Z" fill="#16191E"/>
<path d="M15.7476 18.2662C16.2247 18.2662 16.6115 17.8795 16.6115 17.4024C16.6115 16.9253 16.2247 16.5386 15.7476 16.5386C15.2706 16.5386 14.8838 16.9253 14.8838 17.4024C14.8838 17.8795 15.2706 18.2662 15.7476 18.2662Z" fill="white"/>
<path d="M15.8834 18.0329C16.2855 18.0329 16.6115 17.7069 16.6115 17.3048C16.6115 16.9027 16.2855 16.5767 15.8834 16.5767C15.4813 16.5767 15.1553 16.9027 15.1553 17.3048C15.1553 17.7069 15.4813 18.0329 15.8834 18.0329Z" fill="#2C1C12"/>
<path d="M22.0334 21.3411C22.5647 21.2742 23.0979 21.2093 23.6292 21.15C23.3055 21.0234 22.9569 20.973 22.6106 21.0029C23.041 20.5834 23.5241 20.2218 24.0477 19.9269C23.3388 20.1308 22.6771 20.4723 22.1003 20.9321C22.1065 20.6072 22.2239 20.2943 22.4328 20.0454C22.1291 20.1828 21.8659 20.396 21.6684 20.6646C21.8033 20.4646 21.895 20.2388 21.9378 20.0014L21.2345 20.7238C21.4235 20.1258 21.7353 19.5737 22.15 19.1032C21.8226 19.2273 21.5103 19.3882 21.2193 19.5829C20.9266 19.7822 20.7109 20.0755 20.6077 20.4142L20.9307 18.9771C20.7325 19.3026 20.5588 19.6425 20.4108 19.9938C20.2703 19.8455 20.1835 19.6544 20.1643 19.451C20.1341 19.7068 20.1813 19.9658 20.3 20.1944C20.1241 20.0452 19.9254 19.9251 19.7114 19.839C19.7449 20.0821 19.8634 20.3055 20.0458 20.4696C19.4515 20.4429 18.8437 20.42 18.278 20.6034C18.831 20.634 19.3846 20.6417 19.9388 20.6264C19.7825 20.7033 19.6067 20.7312 19.4343 20.7066C18.9579 20.6868 18.4838 20.7825 18.0525 20.9857C18.3564 21.0105 18.6622 21.0239 18.9679 21.0258C18.6474 21.1453 18.343 21.3045 18.0621 21.4998C18.383 21.5025 18.7033 21.4711 19.0176 21.4061C18.6463 21.5189 18.2995 21.7004 17.9952 21.9412C18.3832 21.9038 18.7671 21.8309 19.1418 21.7234C18.7596 22.0138 18.3774 22.312 17.9952 22.6139C18.171 22.6139 18.3086 22.4725 18.4405 22.3521C18.5723 22.2317 18.7596 22.1266 18.9144 22.2126C18.666 22.333 18.3927 22.4783 18.3029 22.7401C18.9267 22.2005 19.707 21.8749 20.5293 21.8113L19.9923 22.2432L20.6478 22.0349C20.8293 22.0787 21.0186 22.0787 21.2001 22.0349C21.5097 21.9622 21.9111 21.9622 22.622 22.2718C23.333 22.5815 22.0028 21.7616 22.0028 21.7616C22.0028 21.7616 23.6598 21.5246 23.6063 21.5246C23.5528 21.5246 22.0334 21.3411 22.0334 21.3411Z" fill="#D1D0D1"/>
<path d="M21.8022 22.0714C21.9446 22.0645 22.0866 22.0917 22.2163 22.1509C22.3459 22.2101 22.4595 22.2995 22.5476 22.4116C22.8127 22.6753 22.9677 23.0298 22.9814 23.4034C22.9673 23.6368 22.9184 23.8668 22.8362 24.0857L22.6737 24.5807C22.6527 24.661 22.6184 24.7372 22.5724 24.8062C22.5138 24.8732 22.444 24.9295 22.366 24.9725L21.6799 25.4159C21.5074 25.5439 21.3132 25.6398 21.1066 25.6987C20.8733 25.7389 20.6334 25.7097 20.4167 25.6146C20.2024 25.5184 19.9982 25.4012 19.807 25.2649L19.5337 25.0738C19.3962 24.9918 19.268 24.895 19.1515 24.7852C18.9544 24.55 18.8185 24.2696 18.7559 23.9691C18.6366 23.624 18.6253 23.2507 18.7234 22.8989C18.7558 22.7941 18.8233 22.7037 18.9145 22.6428C18.9546 22.6161 19.0024 22.5989 19.0273 22.5568C19.0374 22.533 19.0445 22.5079 19.0483 22.4823C19.0732 22.3668 19.1314 22.2611 19.2156 22.1783C19.2998 22.0954 19.4064 22.039 19.5223 22.016L19.3923 21.9032C19.5465 21.9053 19.6993 21.9318 19.8452 21.9816L20.0994 22.0236C20.0577 21.8606 20.0512 21.6905 20.0803 21.5248C20.0786 21.5674 20.0887 21.6096 20.1097 21.6468C20.1306 21.6839 20.1615 21.7145 20.1988 21.735C20.1737 21.5438 20.0903 21.365 19.9599 21.2228C20.0338 21.2904 20.1184 21.3453 20.2103 21.3853C20.135 21.2541 20.0979 21.1045 20.1032 20.9534L20.3842 21.2133C20.371 21.0783 20.3801 20.9421 20.4109 20.81C20.4632 20.8836 20.4907 20.972 20.4893 21.0623C20.5479 20.9263 20.6415 20.8082 20.7607 20.7202C20.7436 20.8258 20.7107 20.9283 20.6632 21.0241C20.7452 20.9882 20.8337 20.9697 20.9231 20.9697C21.0126 20.9697 21.1011 20.9882 21.183 21.0241C21.0091 21.1273 20.7721 21.0776 20.6001 21.1846L21.1735 21.1292C21.0665 21.2744 20.7912 21.2076 20.7052 21.3624L21.0569 21.2974C20.9668 21.3677 20.8837 21.4464 20.8084 21.5324C20.8822 21.4921 20.9633 21.4667 21.047 21.4579C21.1306 21.449 21.2152 21.4568 21.2958 21.4808C21.1702 21.5604 21.0385 21.63 20.9021 21.6892L21.1314 21.6662C21.1314 21.7217 21.0779 21.7599 21.0263 21.779C20.9747 21.7981 20.9078 21.8249 20.9059 21.8803C21.0908 21.8389 21.2787 21.8127 21.4678 21.8019C21.3113 21.8567 21.1633 21.9333 21.0282 22.0293L21.8022 22.0714Z" fill="#16191E"/>
<g style="mix-blend-mode:soft-light">
<path d="M20.2639 22.3732C20.1779 22.3732 19.2606 22.5356 19.0829 22.7554C18.9051 22.9752 18.5917 23.5829 19.0829 23.7109C19.574 23.839 21.3514 24.3588 21.8712 24.076C22.391 23.7931 22.8268 23.5886 22.5974 23.0287C22.3681 22.4687 21.0513 22.2891 20.9023 22.2891C20.7532 22.2891 20.2639 22.3732 20.2639 22.3732Z" fill="#E8E8E8"/>
</g>
<g style="mix-blend-mode:soft-light">
<g style="mix-blend-mode:soft-light">
<path d="M8.73215 14.8682C8.36177 15.0879 8.02779 15.3638 7.74219 15.6861C7.90542 15.5515 8.10497 15.4683 8.31553 15.4472C8.10079 15.8606 7.85549 16.2573 7.58165 16.6341L8.35757 16.2958L7.68867 17.7291C7.7137 17.6382 7.76175 17.5553 7.82819 17.4883C7.89062 17.7834 7.84803 18.0909 7.70778 18.3579C7.71805 18.3228 7.74085 18.2927 7.77186 18.2733C7.80287 18.2539 7.83992 18.2466 7.87597 18.2528L7.75747 19.1912L8.11103 18.7363C8.11825 18.9996 8.0653 19.261 7.95623 19.5008L9.10291 17.6852C9.01508 17.7867 8.89229 17.8515 8.75891 17.8667L9.08763 17.2552L8.8086 17.3182L9.05323 16.7545C8.94821 16.7896 8.8559 16.8549 8.7879 16.9423C8.71989 17.0297 8.67922 17.1352 8.671 17.2456C8.64616 17.1137 8.6479 16.9781 8.67612 16.8468C8.70434 16.7156 8.75848 16.5912 8.83536 16.4812C8.98771 16.2668 9.16763 16.0733 9.37047 15.9059C9.19552 15.9551 9.02828 16.0284 8.87358 16.1238C8.93205 15.9323 9.05321 15.766 9.21758 15.6517L8.68055 15.6364C8.87969 15.4945 9.07107 15.3421 9.2539 15.1797L9.02647 15.1051L9.22905 14.9274L8.73215 14.8682Z" fill="#E8E8E8"/>
</g>
</g>
<g style="mix-blend-mode:soft-light">
<g style="mix-blend-mode:soft-light">
<path d="M7.81476 20.7853C7.48011 21.165 7.25196 21.6266 7.15351 22.1231C7.31574 21.88 7.49588 21.6494 7.69245 21.4332C7.67879 21.7463 7.64688 22.0583 7.59689 22.3677C7.68329 22.187 7.80553 22.0258 7.95619 21.8938C7.76645 22.3164 7.65321 22.7694 7.62174 23.2316C7.68672 22.9334 7.77463 22.6028 8.03454 22.4461C8.05366 22.8207 8.05812 23.1965 8.04792 23.5737C8.07171 23.4084 8.14424 23.2541 8.25624 23.1303C8.24135 23.6054 8.31523 24.0792 8.47411 24.5273L8.70344 23.7629L8.85442 24.7184C8.9466 24.4787 9.01446 24.2302 9.057 23.9769C9.11856 24.1502 9.21702 24.308 9.34558 24.4394C9.39567 24.3423 9.42306 24.2351 9.42571 24.1258C9.42836 24.0166 9.40619 23.9082 9.36087 23.8087L9.7259 23.9807C9.6828 23.7355 9.54565 23.5167 9.34367 23.3711L9.87688 23.3864C9.58209 23.1376 9.25323 22.9323 8.90029 22.7767C9.07409 22.7793 9.2466 22.807 9.41248 22.8589C9.3286 22.6494 9.23092 22.4458 9.12007 22.2492L9.43923 22.3601C9.48105 22.2861 9.49699 22.2002 9.48453 22.1161C9.47207 22.032 9.43192 21.9544 9.37043 21.8957C9.23998 21.7851 9.11915 21.6636 9.00923 21.5326L8.7818 22.1212C8.72823 22.056 8.69336 21.9775 8.6809 21.894C8.66845 21.8105 8.67888 21.7252 8.71109 21.6472C8.78003 21.4904 8.79021 21.314 8.73975 21.1503L8.21037 21.6988C8.48149 21.4336 8.66433 21.0913 8.73402 20.7184C8.59493 20.7355 8.46052 20.7796 8.33842 20.8484C8.36299 20.8239 8.38047 20.7933 8.38896 20.7597C8.39746 20.7261 8.39666 20.6908 8.38664 20.6576C8.37663 20.6244 8.35778 20.5946 8.33212 20.5713C8.30645 20.548 8.27494 20.5321 8.24095 20.5254L7.81476 20.7853Z" fill="#E8E8E8"/>
</g>
</g>
<g style="mix-blend-mode:soft-light">
<g style="mix-blend-mode:soft-light">
<path d="M10.1578 25.448L10.2896 26.1265C10.2828 25.9514 10.3196 25.7774 10.3967 25.62C10.5973 25.9545 10.4636 26.4132 10.6604 26.7495C10.6495 26.6007 10.6922 26.4529 10.7808 26.3329L11.1057 27.1165L11.1726 26.5259L11.5778 27.5962C11.6371 27.4604 11.6588 27.3113 11.6408 27.1642L12.0116 27.5694C12.057 27.3714 12.0484 27.1648 11.9867 26.9712C12.0169 26.9719 12.0465 26.9797 12.073 26.9939C12.0996 27.0082 12.1224 27.0286 12.1396 27.0534C12.2726 26.8789 12.3706 26.6803 12.4282 26.4686C12.4165 26.5965 12.4453 26.7248 12.5104 26.8355C12.5333 26.3348 12.0173 25.9354 12.0307 25.4347L11.8912 26.1762C11.7822 25.8972 11.6599 25.622 11.5281 25.3525C11.4981 25.5831 11.4911 25.8161 11.507 26.0481C11.4343 25.5973 11.3373 25.1507 11.2165 24.7103L10.9356 25.3544L10.7082 24.6186L10.5304 25.1021C10.3994 24.9631 10.2997 24.7975 10.238 24.6167C10.1619 24.713 10.125 24.8345 10.1348 24.9569L10.1578 25.448Z" fill="#E8E8E8"/>
</g>
</g>
<g style="mix-blend-mode:soft-light">
<g style="mix-blend-mode:soft-light">
<path d="M29.0989 22.742C29.0906 22.4761 29.1519 22.2126 29.2766 21.9775C29.4155 22.2575 29.5047 22.5595 29.5404 22.87C29.5667 22.6754 29.6616 22.4965 29.8079 22.3655C29.8079 22.7974 29.8079 23.2274 29.7869 23.6593L30.3144 22.9847C30.2399 23.3402 30.173 23.6995 30.1118 24.0569L30.6278 23.5829C30.6144 23.9651 30.3029 24.2709 30.064 24.5767C29.8884 24.7995 29.7425 25.0443 29.6302 25.3048C29.6482 24.9976 29.6087 24.6897 29.5136 24.397L29.1753 25.0487C29.2595 24.7468 29.2595 24.4276 29.1753 24.1257C29.0412 24.3417 28.9909 24.5994 29.0339 24.85C29.0604 24.4288 29.0648 24.0065 29.0473 23.5848L28.8084 24.4276C28.8797 23.9316 28.9072 23.4302 28.8906 22.9293L29.3416 23.6402L29.0989 22.742Z" fill="#E8E8E8"/>
</g>
</g>
<g style="mix-blend-mode:soft-light">
<g style="mix-blend-mode:soft-light">
<path d="M28.778 18.9427C28.7896 18.8238 28.8288 18.7093 28.8927 18.6083C28.9077 18.7273 28.9426 18.8429 28.9959 18.9504C29.0288 18.7637 29.0976 18.5853 29.1985 18.4248L29.3762 19.3039C29.4187 19.1984 29.5011 19.114 29.6055 19.0689L29.4431 20.2041L29.7106 19.4224C29.5941 19.9767 29.7833 20.5691 29.5922 21.108C29.5555 20.9705 29.5076 20.8363 29.4488 20.7067C29.4286 20.8921 29.3762 21.0725 29.294 21.2399C29.2831 21.0075 29.2511 20.7766 29.1985 20.55C29.0437 20.6379 29.1641 20.9475 29.0073 21.0182L28.9901 20.3092C28.8646 20.5326 28.7167 20.7426 28.5487 20.936L28.7264 20.2576C28.8154 19.9834 28.8524 19.6949 28.8353 19.4071L29.1335 19.9537L28.778 18.9427Z" fill="#E8E8E8"/>
</g>
</g>
<g style="mix-blend-mode:soft-light">
<g style="mix-blend-mode:soft-light">
<path d="M30.2989 17.7099V17.5073C30.3731 17.6249 30.4631 17.7316 30.5665 17.8246C30.5483 17.6799 30.5808 17.5334 30.6582 17.4099C30.7731 17.6005 30.8728 17.7999 30.9564 18.0061C30.8772 17.7713 30.8177 17.5303 30.7786 17.2856C31.0557 17.5972 31.352 17.9259 31.436 18.3329C31.4673 18.4915 31.4814 18.653 31.4781 18.8146C31.4781 19.0783 31.4781 19.3401 31.4666 19.6019C31.4319 19.5383 31.3803 19.4854 31.3176 19.449C31.3134 19.6136 31.2777 19.7758 31.2124 19.9268L31.0863 19.2962C31.0863 19.6134 31.0538 19.9612 30.8321 20.1887C30.9284 19.5343 30.8182 18.8662 30.5168 18.2775L31.0099 18.7324L30.2989 17.7099Z" fill="#E8E8E8"/>
</g>
</g>
<g style="mix-blend-mode:soft-light">
<g style="mix-blend-mode:soft-light">
<path d="M29.0437 14.706L29.0666 14.7748C29.1135 14.6697 29.1782 14.5733 29.2577 14.4901C29.3074 14.5952 29.3514 14.7003 29.3915 14.8073C29.3839 14.6381 29.4013 14.4688 29.4431 14.3047C29.4851 14.3047 29.5062 14.3563 29.5157 14.3983L29.898 15.998C29.9113 16.0515 29.919 16.1222 29.8731 16.1528C29.8731 16.1395 29.8701 16.1265 29.8644 16.1145C29.8588 16.1025 29.8505 16.092 29.8403 16.0836C29.8301 16.0752 29.8181 16.0692 29.8053 16.0659C29.7925 16.0627 29.7791 16.0623 29.7661 16.0648C29.7823 16.1648 29.7823 16.2668 29.7661 16.3668L29.4469 16.0362C29.4297 16.019 29.4087 15.9999 29.3858 16.0094C29.3628 16.019 29.3609 16.0362 29.3552 16.0534L29.2482 16.4203C29.2188 16.2802 29.1779 16.1428 29.1259 16.0094C29.0509 16.2309 28.9602 16.4468 28.8545 16.6554C28.8315 16.7013 28.7838 16.7529 28.7417 16.7242V15.0596C28.7417 15.0596 29.2023 15.717 29.1239 15.6329C29.0456 15.5488 29.0437 14.706 29.0437 14.706Z" fill="#E8E8E8"/>
</g>
</g>
<path d="M53.4815 20.5242H58.1693V22.2263H53.4815V20.5242ZM51.5004 24.1377L54.8767 14.6365H57.0113L60.2761 24.1377H58.4344L55.6859 15.8922H56.2161L53.342 24.1377H51.5004ZM63.0417 17.3152L63.5021 19.1987V24.1377H61.6744V17.3152H63.0417ZM63.1254 20.1335L62.7906 19.98V18.5849L62.9161 18.4314C63.0184 18.264 63.1719 18.0826 63.3765 17.8873C63.5905 17.6919 63.8323 17.5245 64.102 17.385C64.3811 17.2362 64.6694 17.1618 64.9671 17.1618C65.1159 17.1618 65.2507 17.1711 65.3717 17.1897C65.4926 17.2083 65.5856 17.2408 65.6507 17.2873V18.9476H65.2042C64.5997 18.9476 64.1346 19.0453 63.8091 19.2406C63.4835 19.4266 63.2556 19.7243 63.1254 20.1335ZM68.8087 24.2075C68.5018 24.2075 68.2181 24.1423 67.9577 24.0121C67.7065 23.8819 67.5019 23.6819 67.3438 23.4122C67.195 23.1332 67.1205 22.7751 67.1205 22.3379V14.6365H68.9343V21.6961C68.9343 22.0217 68.9994 22.2356 69.1296 22.3379C69.2598 22.4309 69.4179 22.4774 69.604 22.4774V24.1098C69.5017 24.147 69.3761 24.1702 69.2273 24.1796C69.0878 24.1982 68.9482 24.2075 68.8087 24.2075ZM74.1899 24.2772C73.5109 24.2772 72.9156 24.133 72.404 23.8447C71.8925 23.5471 71.4972 23.1332 71.2181 22.603C70.9391 22.0728 70.7996 21.4496 70.7996 20.7334C70.7996 20.0266 70.9391 19.408 71.2181 18.8778C71.4972 18.3384 71.8925 17.9198 72.404 17.6222C72.9156 17.3152 73.5109 17.1618 74.1899 17.1618C74.8782 17.1618 75.4734 17.3152 75.9757 17.6222C76.4873 17.9291 76.8826 18.3523 77.1616 18.8918C77.4407 19.422 77.5802 20.0312 77.5802 20.7195C77.5802 20.8218 77.5755 20.9241 77.5662 21.0264C77.5662 21.1194 77.5569 21.1985 77.5383 21.2636H72.2924V19.8963H76.1571L75.8781 20.5521C75.8781 19.9754 75.7385 19.5057 75.4595 19.1429C75.1898 18.7802 74.7666 18.5988 74.1899 18.5988C73.6876 18.5988 73.283 18.7569 72.9761 19.0732C72.6691 19.3801 72.5157 19.794 72.5157 20.3149V21.0543C72.5157 21.6031 72.6691 22.0356 72.9761 22.3519C73.2923 22.6588 73.7202 22.8123 74.2596 22.8123C74.734 22.8123 75.1061 22.7146 75.3758 22.5193C75.6455 22.324 75.8781 22.0821 76.0734 21.7938L77.343 22.5193C77.0361 23.0867 76.6175 23.5238 76.0873 23.8308C75.5665 24.1284 74.934 24.2772 74.1899 24.2772ZM81.851 24.3051C81.2371 24.3051 80.693 24.1563 80.2186 23.8587C79.7442 23.5517 79.3722 23.1285 79.1025 22.589C78.842 22.0496 78.7118 21.431 78.7118 20.7334C78.7118 20.0266 78.842 19.408 79.1025 18.8778C79.3629 18.3384 79.7303 17.9198 80.2047 17.6222C80.679 17.3152 81.2278 17.1618 81.851 17.1618C82.4462 17.1618 82.9671 17.3106 83.4136 17.6082C83.8693 17.8966 84.2228 18.3058 84.4739 18.836C84.7251 19.3662 84.8506 19.9986 84.8506 20.7334C84.8506 21.4868 84.7251 22.1286 84.4739 22.6588C84.2228 23.189 83.874 23.5982 83.4275 23.8866C82.9811 24.1656 82.4555 24.3051 81.851 24.3051ZM82.1719 22.6169C82.6462 22.6169 83.0322 22.4449 83.3299 22.1007C83.6275 21.7473 83.7763 21.2915 83.7763 20.7334C83.7763 20.1661 83.6275 19.7103 83.3299 19.3662C83.0322 19.0127 82.6462 18.836 82.1719 18.836C81.7068 18.836 81.3208 19.0127 81.0139 19.3662C80.7162 19.7196 80.5674 20.1754 80.5674 20.7334C80.5674 21.2915 80.7162 21.7473 81.0139 22.1007C81.3208 22.4449 81.7068 22.6169 82.1719 22.6169ZM83.6926 26.7885V22.3519H83.8182V18.9337H83.6926L84.153 17.3152H85.5203V26.7885H83.6926ZM89.7657 24.3051C89.2541 24.3051 88.8449 24.2261 88.5379 24.0679C88.231 23.9098 87.9938 23.7005 87.8264 23.4401C87.6683 23.1704 87.5613 22.8634 87.5055 22.5193C87.4497 22.1751 87.4218 21.817 87.4218 21.445V17.3152H89.2495V21.4589C89.2495 21.8775 89.3378 22.1565 89.5146 22.2961C89.7006 22.4356 89.9192 22.5053 90.1703 22.5053C90.4028 22.5053 90.6354 22.4635 90.8679 22.3798C91.1004 22.2961 91.319 22.1751 91.5236 22.017C91.7376 21.8496 91.9143 21.6589 92.0538 21.445L92.277 22.4077H91.8306V17.3152H93.6583V24.1377H92.291L91.9143 22.8402L92.5003 22.8541C92.2677 23.1239 92.0026 23.3703 91.705 23.5936C91.4167 23.8168 91.1051 23.9935 90.7702 24.1237C90.4447 24.2447 90.1098 24.3051 89.7657 24.3051ZM97.4913 24.1377H95.6636V17.3152H97.4913V24.1377ZM96.4868 16.4502L95.6078 15.5434L97.7983 13.5203L98.6912 14.4133L96.4868 16.4502ZM103.603 17.1618C104.068 17.1618 104.44 17.2408 104.719 17.399C105.008 17.5571 105.222 17.771 105.361 18.0407C105.51 18.3105 105.608 18.6174 105.654 18.9616C105.701 19.2964 105.724 19.6452 105.724 20.0079V24.1377H103.896V19.994C103.896 19.5754 103.812 19.2964 103.645 19.1569C103.487 19.0174 103.282 18.9476 103.031 18.9476C102.799 18.9476 102.561 18.9941 102.32 19.0871C102.078 19.1708 101.85 19.2964 101.636 19.4638C101.431 19.6219 101.255 19.8033 101.106 20.0079L100.869 19.0592H101.329V24.1377H99.5014V17.3152H100.869L101.245 18.6267L100.659 18.5988C100.901 18.3198 101.176 18.0733 101.483 17.8594C101.799 17.6454 102.134 17.478 102.487 17.3571C102.841 17.2269 103.213 17.1618 103.603 17.1618ZM111.256 24.1377L112.958 14.6365H114.59L116.976 21.2776H116.92L119.306 14.6365H120.938L122.641 24.1377H120.785L120.101 19.7987C119.999 19.2127 119.911 18.6267 119.836 18.0407C119.771 17.4455 119.72 16.8548 119.683 16.2689H120.185C120.027 16.9292 119.869 17.5385 119.711 18.0965C119.562 18.6453 119.385 19.208 119.18 19.7847L117.66 24.0121H116.237L114.716 19.7847C114.511 19.208 114.33 18.6453 114.172 18.0965C114.014 17.5385 113.86 16.9292 113.711 16.2689H114.2C114.172 16.8548 114.121 17.4455 114.046 18.0407C113.981 18.6267 113.897 19.2127 113.795 19.7987L113.111 24.1377H111.256ZM126.298 24.333C125.796 24.333 125.354 24.24 124.973 24.054C124.591 23.8587 124.298 23.5889 124.094 23.2448C123.889 22.8913 123.787 22.4821 123.787 22.017C123.787 21.552 123.894 21.1473 124.108 20.8032C124.331 20.4591 124.633 20.194 125.015 20.0079C125.396 19.8126 125.828 19.715 126.312 19.715C126.973 19.715 127.507 19.8684 127.917 20.1754C128.335 20.473 128.619 20.9009 128.768 21.4589L127.917 21.3473V19.701C127.917 19.4406 127.824 19.208 127.638 19.0034C127.452 18.7988 127.149 18.6965 126.731 18.6965C126.47 18.6965 126.182 18.729 125.866 18.7941C125.549 18.8499 125.219 18.9616 124.875 19.129L124.331 17.7896C124.731 17.5943 125.154 17.4408 125.601 17.3292C126.056 17.2176 126.512 17.1618 126.968 17.1618C127.591 17.1618 128.107 17.2734 128.517 17.4966C128.926 17.7198 129.233 18.0268 129.437 18.4174C129.642 18.8081 129.744 19.2545 129.744 19.7568V24.1377H128.293L127.903 22.8402L128.768 22.589C128.61 23.1378 128.317 23.5657 127.889 23.8726C127.47 24.1796 126.94 24.333 126.298 24.333ZM126.8 22.9378C127.135 22.9378 127.405 22.8541 127.61 22.6867C127.814 22.5193 127.917 22.2961 127.917 22.017C127.917 21.7287 127.814 21.5054 127.61 21.3473C127.405 21.1799 127.135 21.0962 126.8 21.0962C126.466 21.0962 126.196 21.1799 125.991 21.3473C125.787 21.5054 125.684 21.7287 125.684 22.017C125.684 22.2961 125.787 22.5193 125.991 22.6867C126.196 22.8541 126.466 22.9378 126.8 22.9378ZM133.986 24.3191C133.465 24.3191 132.967 24.2121 132.493 23.9982C132.028 23.7842 131.614 23.4122 131.251 22.882L132.367 21.9054C132.665 22.2402 132.949 22.4821 133.218 22.6309C133.497 22.7704 133.809 22.8402 134.153 22.8402C134.386 22.8402 134.572 22.7844 134.711 22.6728C134.851 22.5611 134.92 22.4216 134.92 22.2542C134.92 22.1426 134.883 22.0449 134.809 21.9612C134.734 21.8682 134.595 21.7798 134.39 21.6961C134.195 21.6124 133.907 21.524 133.525 21.431C132.818 21.245 132.288 20.9939 131.935 20.6776C131.581 20.3521 131.405 19.8963 131.405 19.3104C131.405 18.9104 131.507 18.5477 131.711 18.2221C131.916 17.8873 132.209 17.6222 132.59 17.4269C132.981 17.2315 133.442 17.1339 133.972 17.1339C134.595 17.1339 135.125 17.2548 135.562 17.4966C136.009 17.7384 136.367 18.0314 136.636 18.3756L135.451 19.3662C135.274 19.1801 135.046 19.0174 134.767 18.8778C134.488 18.7383 134.162 18.6686 133.79 18.6686C133.586 18.6686 133.404 18.7151 133.246 18.8081C133.088 18.9011 133.009 19.036 133.009 19.2127C133.009 19.3801 133.093 19.5196 133.26 19.6312C133.437 19.7429 133.772 19.8591 134.265 19.98C135.102 20.1754 135.702 20.4405 136.064 20.7753C136.427 21.1101 136.609 21.5566 136.609 22.1147C136.609 22.5611 136.492 22.9518 136.26 23.2866C136.027 23.6122 135.711 23.868 135.311 24.054C134.92 24.2307 134.479 24.3191 133.986 24.3191ZM141.246 24.3051C140.548 24.3051 139.939 24.1516 139.418 23.8447C138.897 23.5378 138.493 23.1146 138.204 22.5751C137.925 22.0356 137.786 21.4171 137.786 20.7195C137.786 20.0312 137.925 19.4173 138.204 18.8778C138.493 18.3384 138.897 17.9198 139.418 17.6222C139.939 17.3152 140.548 17.1618 141.246 17.1618C141.971 17.1618 142.609 17.3478 143.157 17.7198C143.715 18.0826 144.115 18.5756 144.357 19.1987L142.683 19.9242C142.543 19.608 142.353 19.3615 142.111 19.1848C141.878 19.0081 141.585 18.9197 141.232 18.9197C140.776 18.9197 140.395 19.0825 140.088 19.408C139.781 19.7243 139.628 20.1614 139.628 20.7195C139.628 21.2869 139.781 21.7287 140.088 22.0449C140.395 22.3612 140.776 22.5193 141.232 22.5193C141.585 22.5193 141.878 22.4356 142.111 22.2681C142.353 22.0914 142.543 21.8449 142.683 21.5287L144.357 22.2542C144.115 22.8681 143.715 23.3657 143.157 23.747C142.599 24.1191 141.962 24.3051 141.246 24.3051ZM148.779 24.3051C148.072 24.3051 147.449 24.1563 146.909 23.8587C146.379 23.5517 145.965 23.1332 145.668 22.603C145.37 22.0635 145.221 21.4403 145.221 20.7334C145.221 20.0266 145.37 19.408 145.668 18.8778C145.965 18.3384 146.379 17.9198 146.909 17.6222C147.449 17.3152 148.072 17.1618 148.779 17.1618C149.486 17.1618 150.104 17.3152 150.635 17.6222C151.174 17.9198 151.593 18.3384 151.89 18.8778C152.188 19.408 152.337 20.0266 152.337 20.7334C152.337 21.4403 152.188 22.0635 151.89 22.603C151.593 23.1332 151.174 23.5517 150.635 23.8587C150.104 24.1563 149.486 24.3051 148.779 24.3051ZM148.779 22.5332C149.281 22.5332 149.69 22.3658 150.007 22.031C150.323 21.6961 150.481 21.2636 150.481 20.7334C150.481 20.194 150.323 19.7568 150.007 19.422C149.69 19.0871 149.281 18.9197 148.779 18.9197C148.277 18.9197 147.867 19.0871 147.551 19.422C147.244 19.7475 147.091 20.18 147.091 20.7195C147.091 21.259 147.244 21.6961 147.551 22.031C147.867 22.3658 148.277 22.5332 148.779 22.5332ZM156.576 24.2633C155.878 24.2633 155.325 24.0819 154.915 23.7191C154.515 23.3471 154.315 22.7565 154.315 21.9473V17.399L154.288 17.3152L154.664 15.7108H156.143V21.6543C156.143 21.9519 156.213 22.1705 156.352 22.31C156.501 22.4402 156.687 22.5053 156.91 22.5053C157.059 22.5053 157.194 22.496 157.315 22.4774C157.436 22.4495 157.543 22.4216 157.636 22.3937V24.0958C157.487 24.1516 157.329 24.1935 157.162 24.2214C156.994 24.2493 156.799 24.2633 156.576 24.2633ZM153.255 19.0034V17.3152H157.636V19.0034H153.255ZM161.513 24.333C161.011 24.333 160.569 24.24 160.188 24.054C159.806 23.8587 159.513 23.5889 159.309 23.2448C159.104 22.8913 159.002 22.4821 159.002 22.017C159.002 21.552 159.109 21.1473 159.323 20.8032C159.546 20.4591 159.848 20.194 160.229 20.0079C160.611 19.8126 161.043 19.715 161.527 19.715C162.187 19.715 162.722 19.8684 163.131 20.1754C163.55 20.473 163.834 20.9009 163.982 21.4589L163.131 21.3473V19.701C163.131 19.4406 163.038 19.208 162.852 19.0034C162.666 18.7988 162.364 18.6965 161.945 18.6965C161.685 18.6965 161.397 18.729 161.08 18.7941C160.764 18.8499 160.434 18.9616 160.09 19.129L159.546 17.7896C159.946 17.5943 160.369 17.4408 160.815 17.3292C161.271 17.2176 161.727 17.1618 162.183 17.1618C162.806 17.1618 163.322 17.2734 163.731 17.4966C164.141 17.7198 164.448 18.0268 164.652 18.4174C164.857 18.8081 164.959 19.2545 164.959 19.7568V24.1377H163.508L163.117 22.8402L163.982 22.589C163.824 23.1378 163.531 23.5657 163.103 23.8726C162.685 24.1796 162.155 24.333 161.513 24.333ZM162.015 22.9378C162.35 22.9378 162.62 22.8541 162.824 22.6867C163.029 22.5193 163.131 22.2961 163.131 22.017C163.131 21.7287 163.029 21.5054 162.824 21.3473C162.62 21.1799 162.35 21.0962 162.015 21.0962C161.68 21.0962 161.411 21.1799 161.206 21.3473C161.001 21.5054 160.899 21.7287 160.899 22.017C160.899 22.2961 161.001 22.5193 161.206 22.6867C161.411 22.8541 161.68 22.9378 162.015 22.9378ZM169.2 24.3191C168.68 24.3191 168.182 24.2121 167.708 23.9982C167.243 23.7842 166.829 23.4122 166.466 22.882L167.582 21.9054C167.88 22.2402 168.163 22.4821 168.433 22.6309C168.712 22.7704 169.024 22.8402 169.368 22.8402C169.6 22.8402 169.786 22.7844 169.926 22.6728C170.065 22.5611 170.135 22.4216 170.135 22.2542C170.135 22.1426 170.098 22.0449 170.024 21.9612C169.949 21.8682 169.81 21.7798 169.605 21.6961C169.41 21.6124 169.121 21.524 168.74 21.431C168.033 21.245 167.503 20.9939 167.15 20.6776C166.796 20.3521 166.619 19.8963 166.619 19.3104C166.619 18.9104 166.722 18.5477 166.926 18.2221C167.131 17.8873 167.424 17.6222 167.805 17.4269C168.196 17.2315 168.656 17.1339 169.186 17.1339C169.81 17.1339 170.34 17.2548 170.777 17.4966C171.223 17.7384 171.582 18.0314 171.851 18.3756L170.665 19.3662C170.489 19.1801 170.261 19.0174 169.982 18.8778C169.703 18.7383 169.377 18.6686 169.005 18.6686C168.8 18.6686 168.619 18.7151 168.461 18.8081C168.303 18.9011 168.224 19.036 168.224 19.2127C168.224 19.3801 168.308 19.5196 168.475 19.6312C168.652 19.7429 168.986 19.8591 169.479 19.98C170.317 20.1754 170.917 20.4405 171.279 20.7753C171.642 21.1101 171.823 21.5566 171.823 22.1147C171.823 22.5611 171.707 22.9518 171.475 23.2866C171.242 23.6122 170.926 23.868 170.526 24.054C170.135 24.2307 169.693 24.3191 169.2 24.3191Z" fill="#FAFAFA"/>
</svg>
