<svg width="71" height="71" viewBox="0 0 71 71" fill="none" xmlns="http://www.w3.org/2000/svg">
<path fill-rule="evenodd" clip-rule="evenodd" d="M35.5 68.7812C52.6553 68.7812 66.5625 54.8741 66.5625 37.7188C66.5625 20.5634 52.6553 6.65625 35.5 6.65625C18.3447 6.65625 4.4375 20.5634 4.4375 37.7188C4.4375 43.2898 5.90409 48.5182 8.47224 53.0392L4.4375 68.7812L20.6674 65.0178C25.0749 67.4177 30.1282 68.7812 35.5 68.7812ZM35.5 64.0024C50.0161 64.0024 61.7837 52.2348 61.7837 37.7188C61.7837 23.2027 50.0161 11.4351 35.5 11.4351C20.9839 11.4351 9.21635 23.2027 9.21635 37.7188C9.21635 43.3235 10.9706 48.5184 13.96 52.7845L11.6058 61.613L20.5898 59.367C24.8264 62.2904 29.9633 64.0024 35.5 64.0024Z" fill="#BFC8D0"/>
<path d="M62.125 35.5C62.125 50.2046 50.2046 62.125 35.5 62.125C29.8914 62.125 24.6878 60.3908 20.3962 57.4294L11.2955 59.7045L13.6803 50.7615C10.6521 46.4399 8.875 41.1775 8.875 35.5C8.875 20.7954 20.7954 8.875 35.5 8.875C50.2046 8.875 62.125 20.7954 62.125 35.5Z" fill="url(#paint0_linear_1350_69754)"/>
<path fill-rule="evenodd" clip-rule="evenodd" d="M35.5 66.5625C52.6553 66.5625 66.5625 52.6553 66.5625 35.5C66.5625 18.3447 52.6553 4.4375 35.5 4.4375C18.3447 4.4375 4.4375 18.3447 4.4375 35.5C4.4375 41.071 5.90409 46.2995 8.47224 50.8204L4.4375 66.5625L20.6674 62.7991C25.0749 65.1989 30.1282 66.5625 35.5 66.5625ZM35.5 61.7837C50.0161 61.7837 61.7837 50.0161 61.7837 35.5C61.7837 20.9839 50.0161 9.21635 35.5 9.21635C20.9839 9.21635 9.21635 20.9839 9.21635 35.5C9.21635 41.1047 10.9706 46.2997 13.96 50.5658L11.6058 59.3942L20.5898 57.1482C24.8264 60.0717 29.9633 61.7837 35.5 61.7837Z" fill="white"/>
<path d="M27.7344 21.078C26.9959 19.5945 25.8629 19.7259 24.7184 19.7259C22.6729 19.7259 19.4834 22.176 19.4834 26.7359C19.4834 30.473 21.1302 34.5638 26.6792 40.6833C32.0344 46.5891 39.0708 49.6442 44.9124 49.5402C50.7539 49.4362 51.9558 44.4093 51.9558 42.7117C51.9558 41.9593 51.4889 41.5839 51.1672 41.4819C49.1765 40.5265 45.5051 38.7464 44.6697 38.412C43.8343 38.0775 43.3981 38.5299 43.127 38.776C42.3694 39.4979 40.8677 41.6256 40.3535 42.1041C39.8394 42.5827 39.0728 42.3405 38.7538 42.1596C37.5799 41.6885 34.3971 40.2728 31.8601 37.8134C28.7224 34.7718 28.5383 33.7254 27.9472 32.7939C27.4742 32.0487 27.8213 31.5915 27.9944 31.3917C28.6705 30.6116 29.6039 29.4074 30.0225 28.8089C30.4411 28.2105 30.1088 27.3018 29.9094 26.7359C29.0518 24.3021 28.3253 22.2647 27.7344 21.078Z" fill="white"/>
<defs>
<linearGradient id="paint0_linear_1350_69754" x1="58.7969" y1="15.5312" x2="8.875" y2="62.125" gradientUnits="userSpaceOnUse">
<stop stop-color="#5BD066"/>
<stop offset="1" stop-color="#27B43E"/>
</linearGradient>
</defs>
</svg>
