<svg width="20" height="21" viewBox="0 0 20 21" fill="none" xmlns="http://www.w3.org/2000/svg">
<path d="M19.8008 6.63794C19.8008 6.63794 19.6055 5.25903 19.0039 4.65356C18.2422 3.85669 17.3906 3.85278 17 3.80591C14.2031 3.60278 10.0039 3.60278 10.0039 3.60278H9.99609C9.99609 3.60278 5.79688 3.60278 3 3.80591C2.60938 3.85278 1.75781 3.85669 0.996094 4.65356C0.394531 5.25903 0.203125 6.63794 0.203125 6.63794C0.203125 6.63794 0 8.25903 0 9.87622V11.3918C0 13.009 0.199219 14.6301 0.199219 14.6301C0.199219 14.6301 0.394531 16.009 0.992187 16.6145C1.75391 17.4114 2.75391 17.384 3.19922 17.47C4.80078 17.6223 10 17.6692 10 17.6692C10 17.6692 14.2031 17.6614 17 17.4622C17.3906 17.4153 18.2422 17.4114 19.0039 16.6145C19.6055 16.009 19.8008 14.6301 19.8008 14.6301C19.8008 14.6301 20 13.0129 20 11.3918V9.87622C20 8.25903 19.8008 6.63794 19.8008 6.63794ZM7.93359 13.2317V7.6106L13.3359 10.4309L7.93359 13.2317Z" fill="#E0E0E0"/>
</svg>
